<?xml version="1.0" encoding="UTF-8" standalone="yes"?><svg xmlns="http://www.w3.org/2000/svg" xmlns:xlink="http://www.w3.org/1999/xlink" width="297.000mm" height="210.000mm" viewBox="0.000000 0.000000 297.000000 210.000000" stroke-linejoin="round" stroke-linecap="round" fill="none" fill-rule="evenodd"><desc>Composer Export</desc><script type="text/ecmascript"><![CDATA[
if(typeof(top) != "undefined")
{
	top.ShowPaper = ShowPaper;
}
function ShowHotSpot(evt,hotspotid)
{
	var svgDocument = evt.target.ownerDocument;
	var strId = "hotspot."+hotspotid;
	var hotspot = svgDocument.getElementById(strId);
	if(hotspot)
		hotspot.setAttribute("opacity",".5");
}
function HideHotSpot(evt,hotspotid)
{
	var svgDocument = evt.target.ownerDocument;
	var strId = "hotspot."+hotspotid;
	var hotspot = svgDocument.getElementById(strId);
	if(hotspot)
		hotspot.setAttribute("opacity","0");

	var toolTip = svgDocument.getElementById('ToolTip');
	if(toolTip)
		toolTip.setAttribute("visibility","hidden");
}
function ShowToolTip(evt,hotspotid,strTooltip)
{
	if(strTooltip=="")
	return;

	// change text
	var svgDocument = evt.target.ownerDocument;
	var tiptext = svgDocument.getElementById('ToolTipText');
	if( !tiptext )
	return;
	tiptext.firstChild.nodeValue = " " + strTooltip + "  " ;

	// show tooltip before, else some refresh issue

	var toolTip = svgDocument.getElementById('ToolTip');
	if(!toolTip)
	return;

	toolTip.setAttribute("visibility","visible");
	toolTip.setAttribute("opacity",".95");

	// move tooltip
	// get viewbox

	var root = svgDocument.documentElement;
	var vbox = (root.getAttribute("viewBox")).split(' ');
	var x0 = parseFloat(vbox[0]);
	var y0 = parseFloat(vbox[1]);
	var vboxW = parseFloat(vbox[2]);
	var vboxH = parseFloat(vbox[3]);

	// get default width of svg

	var strW = root.getAttribute("width");
	var svgW = parseFloat(strW);
	if(strW.indexOf('mm') != -1)
	svgW *= 3.779;

	var strH = root.getAttribute("height");
	var svgH = parseFloat(strH);
	if(strH.indexOf('mm') != -1)
	svgH *= 3.779;  	// 96 dpi  -> 96/25.4 = 3.779

	// update the viewbox / width / height if svg is embedded in html with zoom fit all
	var realx0 = x0;
	var realy0 = y0;
	var realvboxW = vboxW;
	var realvboxH = vboxH;
	var realsvgW = svgW;
	var realsvgH = svgH;

	if ((typeof(top) == "undefined") || (typeof(top.svgctl1) != "undefined")) // embedded in html
	{
		// get window size in pxl

		svgW = window.innerWidth;
		svgH = window.innerHeight;

		// calculate real viewbox

		realsvgW = svgW;
		realsvgH = svgH;
		if((svgW / svgH) > (vboxW / vboxH))
		{
			realvboxW = (vboxH * svgW) / svgH;
			realvboxH = vboxH;
			realx0 = x0 - (realvboxW - vboxW)/2 ;
		}
		else
		{
			realvboxH = (vboxW * svgH) / svgW;
			realvboxW = vboxW;
			realy0 = y0 - (realvboxH - vboxH)/2 ;
		}
	}

	// get user zoom/pan

	var newScale = root.currentScale;
	var translation = root.currentTranslate;

	// transform pxl to user unit

	var xPos = (((evt.clientX+10- translation.x)/newScale) * realvboxW)/realsvgW  + realx0 ;
	var yPos = (((evt.clientY+5- translation.y)/newScale) * realvboxH)/ realsvgH  + realy0 ;
	var scaleForWidth = ( (1 / newScale) * realvboxH) / realsvgH;

	// move tooltip

	toolTip.setAttribute("transform", "translate(" + xPos + "," + yPos + ")" );

	// resize tooltip

	var fontsize = 12;
	tiptext.setAttribute("font-size",fontsize*scaleForWidth);
	tiptext.setAttribute("y", fontsize*scaleForWidth);
	var tipBG = svgDocument.getElementById('ToolTipBG');
	var outline = tiptext.getBBox();
	if(tipBG)
	{
		tipBG.setAttribute("stroke-width", 1*scaleForWidth);
		tipBG.setAttribute("width", Number(outline.width) );
		tipBG.setAttribute("height", Number(outline.height) + fontsize*.5*scaleForWidth );
	}
	var ToolTipShadow = svgDocument.getElementById('ToolTipShadow');
	if(ToolTipShadow)
	{
		ToolTipShadow.setAttribute("width", Number(outline.width) );
		ToolTipShadow.setAttribute("height", Number(outline.height) + fontsize*.5*scaleForWidth );
		ToolTipShadow.setAttribute("x", 3*scaleForWidth);
		ToolTipShadow.setAttribute("y", 3*scaleForWidth);
	}
}
function ShowPaper()
{
  var svgDocument = getDocument();
  var paper = svgDocument.getElementById("paperID");
  if(paper)
  {
    paper.setAttribute("transform","scale(1)");
    paper.setAttribute("opacity","1");
    paper.setAttribute("visibility","visible");
  }
  var svg = svgDocument.getRootElement();
  if(svg)
  {
    svg.setAttribute("width","307.000mm");
    svg.setAttribute("height","220.000mm");
    svg.setAttribute("viewBox","-5.000000 -5.000000 307.000000 220.000000");
  }
}
]]></script><defs/><g><path style="fill:#000000;fill-opacity:0.098;fill-rule:evenodd" d="M204.56,7.16L204.56,14.57L203.93,16.03L202.16,17.39L198.64,18.69L194.66,19.30L192.56,19.38L192.75,13.00L192.96,12.79L197.37,12.40L200.72,11.57L202.50,10.59L202.48,10.32L202.25,10.07L202.17,9.71L203.08,8.92L203.73,8.09L203.92,6.53zM138.11,16.55L138.09,17.50L137.90,17.44L137.45,16.76L137.38,16.37L137.88,16.33zM138.42,17.85L139.06,17.62L139.97,17.62L139.95,18.73L139.61,19.03L139.07,18.94L138.49,18.23zM142.07,18.85L141.99,21.18L141.17,21.61L140.32,21.67L139.30,19.50L139.49,19.13L139.61,19.03L141.86,18.64zM141.01,24.52L141.22,28.56L140.80,30.86L140.11,32.47L138.84,33.92L131.96,35.61L131.31,35.60L132.58,34.14L133.29,32.55L133.71,29.35L133.41,25.57L140.79,23.89zM126.73,27.02L127.19,27.02L127.43,27.66L127.42,30.44L127.23,31.50L126.60,32.76L126.04,33.03L126.80,31.08zM132.23,31.30L132.10,30.08L132.23,30.15zM203.07,31.62L202.89,33.38L201.84,34.63L200.92,35.20L201.57,35.20L202.67,34.21L203.22,33.49L203.30,34.64L202.17,36.01L199.74,37.34L195.84,38.46L192.14,38.60L191.93,36.44L192.14,34.13L196.13,33.73L199.47,32.89L201.82,31.68L203.01,30.37L219.18,28.48L218.35,58.87L201.34,60.90L200.59,60.89L200.16,60.47L196.75,59.08L196.84,55.26L191.99,55.92L191.73,55.73L191.94,39.99L192.14,38.94L195.75,38.58L195.84,38.46L199.06,37.91L202.16,36.63L203.73,35.27L203.94,33.51L203.51,32.87zM73.11,32.65L73.09,33.38L72.37,33.37L72.43,32.72L72.61,32.45L72.88,32.42zM125.87,33.31L125.45,33.30L125.64,33.09L126.04,33.03zM132.10,30.08L131.99,30.15L129.35,35.71L128.25,36.08L126.71,36.30L126.78,35.66L129.25,30.60L130.49,30.17L132.01,29.93zM74.32,37.38L74.08,37.38L74.11,34.19L74.34,33.71zM75.87,40.76L75.35,40.60L75.32,40.39L75.57,40.37zM86.45,46.70L87.24,46.70L87.92,46.12L88.48,45.40L90.42,45.92L90.65,45.51L90.64,41.92L90.86,41.86L91.05,42.92L91.05,44.86L90.86,45.92L90.35,47.09L89.12,47.94L87.91,47.94L76.02,41.02L75.87,40.76L76.22,40.82zM94.89,40.32L95.03,46.33L94.63,49.69L93.78,50.31L92.66,50.45L93.16,49.68L93.56,46.12L93.49,40.41L94.81,40.18zM92.55,44.17L92.48,44.58L91.61,44.67L91.69,43.80L92.10,43.73zM125.54,46.95L124.91,47.18L124.89,46.09L125.08,45.83L125.53,45.82zM128.27,48.43L127.98,48.98L127.35,48.99L127.63,47.78L128.26,47.71zM107.81,52.31L107.72,52.96L106.25,53.25L106.29,52.15L106.46,51.90L107.16,51.89zM242.20,57.06L242.08,56.74L257.45,50.65L257.43,57.82L256.83,81.05L246.56,85.21L246.15,88.98L245.84,89.54L245.44,89.54L245.72,89.18L245.93,88.34L246.50,61.13L246.80,60.69L245.94,59.21zM75.81,57.98L75.75,59.43L74.68,59.51L74.75,58.03L75.10,57.73zM244.90,61.09L245.52,62.35L245.53,63.27L245.29,63.69L244.68,63.61L244.24,62.58L243.78,62.41L243.83,61.36L244.18,60.86zM33.94,62.16L33.30,62.23L33.36,61.36L33.71,60.88L34.24,60.70zM35.68,63.27L35.38,63.63L34.97,63.69L35.19,62.36L35.69,62.15zM202.05,66.61L201.26,68.12L199.86,68.83L200.29,68.86L201.21,68.28L201.26,68.12L202.47,67.16L202.47,68.29L201.19,69.72L199.12,70.78L196.34,71.56L193.61,71.97L191.31,72.05L191.30,70.91L192.24,70.72L191.09,70.58L191.30,67.78L196.61,67.02L199.25,66.12L201.34,64.85L201.96,64.00L202.05,64.02zM124.85,70.31L124.22,70.38L124.27,69.51L124.65,69.00L124.91,69.02zM82.35,65.19L82.10,65.58L80.80,68.89L80.40,71.83L80.15,72.00L79.27,72.04L79.76,68.89L81.13,65.45L81.80,65.04zM127.65,71.84L127.41,72.26L126.95,72.27L126.94,71.12L127.64,71.13zM108.97,72.66L109.44,56.98L109.88,56.17L110.41,55.65L111.35,55.67L111.37,55.93L110.90,56.77L110.70,59.29L110.29,73.31L109.87,73.26zM96.93,73.20L96.70,78.10L95.85,78.31L95.87,72.58zM86.20,73.20L87.28,73.01L87.51,73.64L87.50,74.54L86.61,74.76L86.44,74.51zM80.42,75.50L80.61,76.78L80.81,79.97L79.92,80.19L79.75,79.72L79.27,74.90zM176.77,75.70L176.53,76.86L176.06,76.87L176.13,75.79L176.58,75.51zM96.72,80.31L96.50,86.05L95.58,86.05L95.66,79.74L95.87,79.69zM87.11,81.16L87.11,81.65L86.67,82.49L85.78,83.28L85.12,83.26L85.63,82.70L86.47,80.52zM158.80,81.99L158.77,82.69L158.31,82.85L157.45,82.92L157.52,81.64L158.15,81.56zM103.82,81.98L103.57,82.22L102.67,82.27L102.68,81.81L103.59,81.58zM113.64,83.03L113.36,91.21L112.35,91.47L112.57,82.66L112.81,82.41zM103.40,84.11L103.44,84.37L102.68,84.74L102.27,84.73L102.70,83.87L102.96,83.84zM244.50,84.69L244.90,85.82L243.84,86.26L243.63,85.81L243.44,85.81L243.42,84.35L244.05,84.28zM32.95,84.14L33.59,84.08L33.37,85.43L32.73,85.35zM35.35,85.70L34.97,86.81L34.34,86.82L34.55,85.54L35.26,85.55zM30.58,55.87L29.82,86.66L29.18,86.89L29.19,80.81L29.81,56.36L30.18,55.26L30.85,55.00zM127.02,87.81L127.00,89.11L126.77,89.33L125.89,89.40L125.96,87.92L126.31,87.62L126.82,87.62zM96.51,88.26L96.49,91.47L96.28,93.14L95.38,93.37L95.43,88.11L95.66,87.63zM102.18,88.68L102.14,89.16L101.89,89.34L101.01,89.39L101.08,88.54L101.95,88.45zM131.32,87.85L132.44,87.63L131.81,117.39L131.62,119.08L131.12,119.62L130.26,119.62L130.57,119.07zM102.54,91.63L102.78,92.02L103.60,96.64L103.54,97.48L102.54,97.48L101.43,91.19L101.70,91.16zM85.21,91.89L84.94,92.08L84.51,92.12L84.56,91.03L85.16,90.54L85.40,90.54zM86.23,92.94L86.46,92.07L86.87,92.01L86.89,93.16L86.59,93.51L86.24,93.51zM119.59,93.48L119.81,93.26L120.75,93.28L120.95,95.66L120.11,95.86L119.88,95.63zM113.21,94.54L113.22,102.98L112.15,103.19L112.17,99.42L112.38,94.10zM120.74,98.94L120.75,99.63L119.82,101.64L118.99,102.09L118.57,102.08L119.47,100.04L119.90,98.49zM176.12,100.04L175.86,100.23L175.43,100.27L175.47,99.18L175.66,98.92L176.11,98.90zM180.73,104.03L180.23,104.79L179.59,104.79L179.89,104.45L180.30,92.73L180.65,77.39L181.35,77.39zM158.15,105.20L158.16,106.12L156.83,106.33L156.90,105.05L157.33,104.78zM181.79,105.59L181.77,108.21L181.07,108.21L181.28,105.39L181.56,105.36zM190.47,106.32L190.69,91.62L191.17,74.54L191.31,72.59L196.75,71.77L199.87,70.91L202.28,69.35L203.10,68.20L203.08,74.34L202.46,99.42L202.26,101.94L201.40,103.37L199.44,104.55L197.80,105.21L197.59,108.14L196.96,108.22L196.82,105.60zM189.91,107.49L189.91,108.61L188.82,109.18L187.48,109.32L187.55,108.33L189.07,107.98L189.52,107.28zM186.92,107.29L187.35,107.04L187.64,107.08L187.63,107.57L186.96,107.49zM187.48,109.32L186.68,109.80L186.31,109.88L186.12,109.61L186.14,109.02L186.37,108.96zM163.45,83.18L162.95,107.99L162.76,110.09L162.26,110.63L161.20,110.70L161.49,105.90L162.05,83.26L162.45,83.03L163.38,83.04zM152.72,110.71L150.97,110.71L150.97,109.58L152.71,109.36zM157.73,111.05L158.99,111.48L157.45,111.69L156.47,111.48L155.60,111.06L155.36,110.83zM126.39,112.58L125.27,112.81L125.33,111.33L125.68,111.04L126.39,111.05zM196.41,112.81L195.90,112.81L195.90,112.30L196.41,112.30zM180.74,112.79L180.00,112.79L180.00,112.55L180.46,112.26L180.74,112.31zM198.29,113.85L198.11,114.09L197.52,114.34L197.66,113.22L198.24,112.70L198.46,112.68zM197.44,114.47L195.89,114.40L197.52,114.34zM182.61,113.64L182.12,114.40L180.44,114.48L180.44,113.55L181.71,113.37L182.62,112.72zM83.93,114.67L84.30,113.94L84.77,113.94L84.58,115.32L83.93,115.24zM86.55,115.58L86.18,116.71L85.55,116.77L85.76,115.43L86.48,115.44zM186.49,117.16L186.54,116.77L187.42,116.69L187.41,117.40zM183.86,119.90L184.83,119.21L186.71,118.79L187.63,118.78L187.63,119.91L184.83,120.45L184.18,120.88L183.86,120.90zM195.33,122.00L196.22,121.73L196.20,122.42L195.33,122.33zM179.71,122.50L179.56,122.13L179.80,121.88L180.31,121.90L180.31,122.63zM181.92,127.79L180.44,127.85L180.45,126.73L180.84,126.51L181.98,126.51zM224.61,135.99L224.33,135.99L224.33,135.72L224.61,135.72zM238.42,138.10L237.91,138.84L235.27,139.76L232.90,139.97L232.90,138.84L236.26,138.24L238.02,137.49L238.42,136.96zM215.53,139.87L215.73,139.69L225.24,137.58L225.24,141.43L224.41,143.73L222.46,145.55L218.70,146.59L216.87,146.60L215.43,145.94L214.54,144.92L214.84,144.53L211.80,145.12L210.32,145.20L210.32,144.07L213.53,143.51L216.67,142.68L217.47,142.00L217.53,141.57L216.88,140.73zM203.51,32.87L203.94,33.51L203.73,35.27L202.16,36.63L199.06,37.91L195.84,38.46L199.74,37.34L202.17,36.01L203.30,34.64L203.22,33.49L202.67,34.21L201.57,35.20L200.92,35.20L201.84,34.63L202.89,33.38L203.07,31.62zM199.72,36.03L198.98,36.17L199.47,35.78L199.94,35.79zM196.17,36.91L195.26,36.85L196.26,36.78zM201.21,68.28L200.29,68.86L199.86,68.83L201.26,68.12zM198.67,69.68L197.50,69.80L198.90,69.44zM197.40,69.94L196.94,69.88L197.50,69.80zM194.79,70.44L194.88,70.31L195.79,70.30zM194.71,70.56L192.97,70.51L194.79,70.44z"/><g id="Actor_1.0"><g style="stroke:#000000;stroke-width:0.176;stroke-opacity:0.87"><path d="M29.02,86.14L29.78,85.97L29.84,86.71L30.03,87.45L30.33,88.09L30.70,88.59L31.01,88.83L30.25,89.01"/><path d="M29.78,85.97L30.52,56.31L30.57,55.82L30.75,55.28L31.05,54.93L31.43,54.81"/><path d="M30.52,56.31L29.76,56.49"/><path d="M31.01,88.83L88.63,122.42L89.05,122.55"/><path d="M33.72,60.75L33.49,60.96L30.67,54.98L31.09,55.11L88.72,88.70L89.04,88.96L89.42,89.47L89.70,90.10L89.89,90.82L89.94,91.56L89.20,121.22L89.14,121.74L88.96,122.27L88.67,122.61L88.30,122.72"/><path d="M31.09,55.11L31.85,54.93"/><path d="M33.92,87.15L33.63,87.11L33.34,86.89L33.07,86.54L32.87,86.08L32.74,85.57L32.70,85.06L32.76,84.61L32.91,84.26L33.14,84.06"/><path d="M33.89,83.88L34.17,83.84L34.46,83.97L34.75,84.26L34.99,84.67L35.16,85.16L35.24,85.68L35.25,85.93L35.23,86.17L35.12,86.57L34.93,86.85L34.68,86.97"/><path d="M34.50,63.85L34.21,63.80L33.92,63.59L33.66,63.24L33.45,62.78L33.32,62.27L33.28,61.76L33.34,61.31L33.49,60.96"/><path d="M34.48,60.58L34.75,60.54L35.05,60.67L35.33,60.96L35.57,61.37L35.74,61.86L35.82,62.37L35.81,62.86L35.70,63.27L35.51,63.55L35.26,63.67"/><path d="M85.11,117.00L84.83,116.95L84.53,116.74L84.27,116.38L84.06,115.93L83.93,115.42L83.90,114.91L83.96,114.45L84.11,114.11L84.33,113.90"/><path d="M85.70,93.69L85.41,93.65L85.11,93.43L84.85,93.08L84.64,92.62L84.51,92.11L84.48,91.60L84.54,91.15L84.68,90.81L84.91,90.60"/><path d="M85.09,113.72L85.36,113.69L85.66,113.82L85.94,114.10L86.18,114.51L86.35,115.00L86.44,115.52L86.42,116.01L86.32,116.42L86.13,116.69L85.87,116.82"/><path d="M85.67,90.42L85.95,90.38L86.24,90.51L86.52,90.80L86.76,91.21L86.93,91.70L87.02,92.22L87.02,92.47L87.01,92.71L86.90,93.11L86.71,93.39L86.45,93.52"/><path d="M87.87,122.60L88.63,122.42"/><path d="M89.20,121.22L89.96,121.05"/><path d="M88.72,88.70L89.48,88.52"/><path d="M89.94,91.56L90.70,91.39"/></g><g style="stroke:#000000;stroke-width:0.529;stroke-opacity:0.87"><path d="M29.47,88.07L29.26,87.61L29.08,86.89L29.02,86.14L29.76,56.49L29.82,55.97L30.01,55.43L30.29,55.11L30.67,54.98L31.43,54.81L31.85,54.93L89.48,88.52L89.78,88.77L90.16,89.26L90.45,89.91L90.64,90.65L90.70,91.39L89.96,121.05L89.91,121.54L89.73,122.07L89.44,122.42L89.05,122.55L88.29,122.72L87.87,122.60L30.25,89.01L29.92,88.74L29.55,88.24L29.47,88.07"/><path d="M33.92,87.15L34.68,86.97L34.39,86.93L34.10,86.72L33.83,86.36L33.63,85.91L33.50,85.40L33.46,84.89L33.52,84.43L33.67,84.09L33.89,83.88L33.14,84.06L33.41,84.02L33.70,84.15L33.99,84.43L34.23,84.85L34.40,85.34L34.48,85.85L34.49,86.11L34.47,86.34L34.36,86.75L34.17,87.03L33.92,87.15"/><path d="M34.01,60.69L33.72,60.75L33.99,60.72L34.29,60.85L34.57,61.13L34.81,61.54L34.98,62.03L35.06,62.55L35.07,62.80L35.05,63.04L34.94,63.44L34.75,63.72L34.50,63.85L35.26,63.67L34.97,63.62L34.68,63.41L34.41,63.06L34.21,62.60L34.08,62.09L34.04,61.58L34.10,61.13L34.25,60.78L34.48,60.58L34.01,60.69"/><path d="M84.84,115.78L84.69,115.24L84.65,114.73L84.71,114.28L84.87,113.93L85.09,113.72L84.33,113.90L84.61,113.86L84.90,113.99L85.18,114.28L85.42,114.69L85.59,115.18L85.68,115.70L85.68,115.95L85.66,116.19L85.56,116.59L85.37,116.87L85.11,117.00L85.87,116.82L85.59,116.77L85.29,116.56L85.03,116.21L84.84,115.78"/><path d="M85.02,90.57L84.91,90.60L85.19,90.56L85.48,90.69L85.76,90.98L86.00,91.39L86.17,91.88L86.26,92.39L86.26,92.65L86.25,92.88L86.14,93.29L85.95,93.57L85.70,93.69L86.45,93.52L86.17,93.47L85.87,93.26L85.61,92.90L85.40,92.45L85.27,91.94L85.24,91.43L85.30,90.97L85.45,90.63L85.67,90.42L85.02,90.57"/></g></g><g id="Actor_6.0"><g style="stroke:#000000;stroke-width:0.176;stroke-opacity:0.87"><path d="M122.21,69.90L122.97,69.72L123.15,62.33"/><path d="M156.60,91.48L124.19,72.59L123.44,72.76"/><path d="M122.97,69.72L123.00,70.29L123.16,71.03L123.42,71.69L123.78,72.23L125.14,70.84"/><path d="M123.02,72.41L123.78,72.23L124.19,72.59"/><path d="M123.26,58.14L123.60,44.30L123.69,43.65L123.90,43.16L124.22,42.87"/><path d="M123.60,44.30L122.84,44.48"/><path d="M122.93,43.83L123.69,43.65L125.70,45.82"/><path d="M124.79,69.01L124.55,69.08L124.36,69.30L124.23,69.65L124.20,70.09L124.25,70.56L124.39,71.03L124.52,71.30L124.75,71.64L125.00,71.85L126.06,72.47L126.82,72.29"/><path d="M178.82,78.88L179.06,78.80L179.25,78.59L179.37,78.24L179.41,77.81L179.36,77.34L179.22,76.87L180.58,75.48L179.82,75.66L179.41,75.30L124.18,43.11L123.78,42.98"/><path d="M124.18,43.11L124.93,42.93L126.13,45.53L126.41,45.61L125.65,45.79"/><path d="M125.00,71.85L125.76,71.67"/><path d="M125.07,69.09L125.83,68.92L125.55,68.83L125.70,63.81"/><path d="M125.83,59.64L126.17,48.24"/><path d="M125.37,45.71L125.13,45.78L124.94,46.00L124.82,46.35L124.78,46.78L124.83,47.26L124.97,47.73L125.10,48.00L125.34,48.34L125.58,48.54L126.34,48.37"/><path d="M125.58,48.54L126.64,49.16L126.90,49.25"/><path d="M126.06,72.47L126.32,72.55"/><path d="M125.83,68.92L126.89,69.54L126.13,69.71"/><path d="M126.89,69.54L127.14,69.75L127.37,70.08L127.54,70.49L127.65,70.95L127.68,71.40L127.63,71.80L127.50,72.11L127.31,72.31L127.08,72.37"/><path d="M126.64,49.16L127.40,48.99"/><path d="M126.41,45.61L127.47,46.23L127.72,46.45L127.95,46.78L128.13,47.19L128.24,47.64L128.27,48.09L128.21,48.50L128.09,48.81L127.89,49.01L127.66,49.07"/><path d="M127.47,46.23L126.71,46.41"/><path d="M180.15,104.84L179.76,104.90L179.43,104.79L163.24,95.35"/><path d="M177.96,102.10L177.20,102.28L176.14,101.66L175.88,101.44L175.65,101.11L175.48,100.70L175.37,100.25L175.34,99.80L175.39,99.39L175.52,99.08L175.71,98.88L175.95,98.82"/><path d="M176.14,101.66L176.90,101.48"/><path d="M176.21,98.90L176.96,98.73L178.03,99.35L178.19,99.47L178.44,99.77L178.64,100.18L178.77,100.64L178.82,101.11L178.79,101.54L178.66,101.89L178.48,102.11L178.24,102.18"/><path d="M176.96,98.73L176.71,98.65"/><path d="M176.53,75.52L176.29,75.58L176.10,75.78L175.97,76.09L175.92,76.49L175.95,76.94L176.06,77.40L176.24,77.81L176.46,78.14L176.72,78.35L177.78,78.97L178.06,79.06"/><path d="M176.72,78.35L177.48,78.18"/><path d="M176.79,75.60L177.55,75.42L177.29,75.34"/><path d="M177.48,102.36L177.20,102.28"/><path d="M177.27,99.52L178.03,99.35"/><path d="M177.78,78.97L178.54,78.80"/><path d="M177.85,76.22L178.61,76.04L178.77,76.17L179.02,76.47L179.22,76.87"/><path d="M177.55,75.42L178.61,76.04"/><path d="M179.06,105.09L179.45,104.99L179.71,104.71L179.91,104.24L180.67,104.06L178.66,101.89"/><path d="M178.67,104.96L179.43,104.79"/><path d="M180.76,103.41L180.00,103.59L179.91,104.24"/><path d="M180.00,103.59L180.64,78.17L180.59,77.48L180.41,76.75L180.17,76.17L179.82,75.66"/><path d="M180.17,75.13L179.41,75.30"/><path d="M180.64,78.17L181.40,77.99"/></g><g style="stroke:#000000;stroke-width:0.529;stroke-opacity:0.87"><path d="M156.59,92.09L123.44,72.76L123.02,72.41L122.68,71.89L122.43,71.32L122.26,70.59L122.21,69.90L122.41,61.89"/><path d="M122.51,57.71L122.84,44.48L122.93,43.83L123.13,43.36L123.40,43.08L124.22,42.87L124.61,42.81L124.93,42.93L180.17,75.13L180.58,75.48L180.94,76.02L181.21,76.69L181.37,77.43L181.40,77.99L180.76,103.41L180.67,104.06L180.46,104.55L180.15,104.84L179.06,105.09L178.67,104.96L163.22,95.96"/><path d="M125.59,71.55L125.76,71.67L126.82,72.29L127.08,72.37L126.32,72.55L126.55,72.49L126.75,72.29L126.87,71.98L126.92,71.57L126.89,71.12L126.79,70.67L126.61,70.26L126.38,69.93L126.13,69.71L125.07,69.09L124.79,69.01L125.55,68.83L125.30,68.91L125.12,69.13L124.99,69.48L124.96,69.91L125.01,70.37L125.14,70.84L125.35,71.25L125.59,71.55"/><path d="M126.96,49.23L127.66,49.07L127.40,48.99L126.34,48.37L126.17,48.24L125.93,47.94L125.73,47.55L125.59,47.07L125.54,46.61L125.58,46.17L125.70,45.82L125.83,45.67L125.88,45.61L126.13,45.53L125.37,45.71L125.65,45.79L126.71,46.41L126.96,46.63L127.19,46.96L127.37,47.37L127.48,47.82L127.51,48.27L127.45,48.67L127.33,48.99L127.14,49.18L126.90,49.25"/><path d="M176.64,101.26L176.41,100.93L176.24,100.52L176.13,100.07L176.10,99.62L176.15,99.22L176.28,98.90L176.47,98.71L176.71,98.65L175.95,98.82L176.21,98.90L177.27,99.52L177.50,99.72L177.74,100.06L177.88,100.34L178.01,100.81L178.07,101.29L178.03,101.72L177.91,102.07L177.71,102.29L177.48,102.36L178.24,102.18L177.96,102.10L176.90,101.48L176.64,101.26"/><path d="M176.84,77.27L176.71,76.77L176.68,76.32L176.73,75.91L176.86,75.60L177.05,75.40L177.29,75.34L176.53,75.52L176.79,75.60L177.85,76.22L178.09,76.42L178.33,76.76L178.46,77.04L178.59,77.51L178.65,77.98L178.61,78.41L178.49,78.76L178.29,78.99L178.06,79.06L178.82,78.88L178.54,78.80L177.48,78.18L177.22,77.96L177.00,77.63L176.84,77.27"/></g></g><g id="Actor_2.0"><g style="stroke:#000000;stroke-width:0.176"><path d="M120.08,27.24L119.95,26.47L120.00,24.55L120.42,22.95L121.17,21.85L122.16,21.37L122.73,21.24L123.87,21.42L125.02,22.25L126.05,23.64L126.66,24.97L126.87,25.43L127.38,27.44L127.52,29.44L127.29,31.22L126.69,32.59L125.81,33.39L125.24,33.52L124.16,33.68L123.01,33.16L121.90,32.04L120.96,30.43L120.28,28.50L120.08,27.24"/><path d="M122.16,21.37L123.30,21.55L124.45,22.38L125.49,23.77L126.03,24.97L126.30,25.56L126.81,27.57L126.95,29.57L126.72,31.36L126.12,32.72L125.24,33.52"/><path d="M121.57,18.32L126.83,21.38L128.10,26.11L129.26,30.46L126.45,36.47"/><path d="M126.83,21.38L129.67,20.72L124.52,17.72"/><path d="M126.49,18.86L127.82,19.08L129.24,20.11L130.52,21.82L131.54,24.04L132.16,26.52L132.34,29.00L132.05,31.20L131.31,32.89L130.22,33.88L130.19,33.88L132.11,29.79L129.26,30.46"/><path d="M126.46,18.84L126.61,18.81L128.01,19.03L129.43,20.06L130.71,21.78L131.50,23.49L131.73,24.00L132.35,26.48L132.53,28.95L132.24,31.15L131.50,32.84L130.41,33.84L130.22,33.88"/><path d="M126.19,16.79L127.96,17.08L129.76,18.38L131.38,20.55L132.66,23.35L133.36,26.11L133.46,26.49L133.68,29.62L133.31,32.41L132.38,34.54L131.00,35.80"/><path d="M128.96,35.88L129.30,35.80L130.19,33.88"/><path d="M129.67,20.72L130.45,23.60L130.86,24.50L131.37,26.51L131.42,27.22L132.11,29.79"/><path d="M131.42,27.22L130.45,23.60"/><path d="M136.91,16.29L137.35,16.61L138.11,17.62"/><path d="M137.10,16.43L137.77,16.28"/><path d="M139.76,17.44L138.24,17.79L138.12,17.63"/><path d="M138.24,17.79L138.98,18.78L140.25,21.59L140.31,21.80"/><path d="M139.17,19.20L141.75,18.60"/><path d="M140.10,18.80L139.09,19.03"/></g><g style="stroke:#000000;stroke-width:0.529"><path d="M119.03,25.32L118.76,24.33L121.57,18.32L124.42,17.66L124.52,17.72L124.64,17.55L126.19,16.79L133.78,15.03L135.55,15.31L136.91,16.29L137.54,16.14L137.77,16.28L138.13,16.61L138.11,17.62L138.12,17.63L139.53,17.31L139.76,17.44L140.13,17.78L140.10,18.80L141.52,18.47L141.75,18.60L142.12,18.94L142.07,20.97L141.68,21.48L140.31,21.80L141.05,24.72L141.27,27.86L140.90,30.64L139.98,32.78L138.59,34.03L131.00,35.80L129.32,36.04L128.96,35.88L126.45,36.47L121.20,33.41L119.03,25.32"/></g></g><g id="Actor_.0"><g style="stroke:#000000;stroke-width:0.176"><path d="M177.28,7.46L178.08,9.15L180.29,10.69L183.64,11.90L187.81,12.66L192.32,12.87L196.69,12.52L198.67,12.15L200.44,11.65L203.17,10.35L204.57,8.75"/><path d="M178.67,5.13L178.03,6.71L178.56,7.82L178.79,8.32L180.88,9.77L184.06,10.92L188.00,11.63L192.27,11.84L196.40,11.51L198.28,11.15L199.95,10.68L202.54,9.45L203.87,7.94L203.81,6.32L202.37,4.77"/></g><g style="stroke:#000000;stroke-width:0.529"><path d="M177.33,14.88L177.27,13.17L177.28,7.46L177.96,5.78L178.67,5.13L180.66,3.74L183.77,2.69L187.66,2.11L191.58,2.05L191.92,2.04L196.08,2.51L199.69,3.45L202.37,4.77L202.99,5.41L204.51,7.05L204.57,8.75L204.57,14.47L203.88,16.14L201.79,17.61L198.50,18.71L194.39,19.33L189.89,19.40L185.50,18.91L181.68,17.91L179.11,16.64L178.86,16.52L177.33,14.88"/></g></g><g id="Actor_.1"><g style="stroke:#000000;stroke-width:0.176"><path d="M203.21,67.90L202.16,69.54L199.74,70.93L196.21,71.92L191.96,72.41L188.18,72.34L187.44,72.33L183.15,71.71L179.54,70.60L177.02,69.13L175.85,67.46"/><path d="M176.45,67.04L176.49,65.68L177.25,67.30L179.35,68.76L182.51,69.90L182.55,69.91L186.52,70.63L190.81,70.83L194.96,70.50L198.53,69.67L201.12,68.43L202.47,66.92L202.43,68.27L201.09,69.79L198.50,71.03L194.93,71.86L190.77,72.19L186.48,71.99L182.52,71.27L179.32,70.12L177.22,68.65L176.45,67.04"/><path d="M176.49,65.68L176.62,65.36"/><path d="M202.19,65.05L202.15,66.49L201.18,68.00L198.96,69.28L195.71,70.19L191.80,70.64L187.64,70.57L183.69,70.00L181.24,69.24L180.38,68.98L178.06,67.62L176.98,66.08L177.02,64.37"/><path d="M202.23,63.48L201.26,64.99L199.03,66.27L195.79,67.18L191.87,67.63L187.72,67.56L183.77,66.99L180.45,65.97L178.13,64.62L177.05,63.08"/><path d="M181.92,105.49L180.11,104.93"/><path d="M195.91,105.67L197.74,105.15"/><path d="M202.47,66.92L202.43,65.89"/></g><g style="stroke:#000000;stroke-width:0.529"><path d="M175.71,102.35L175.01,101.35L175.85,67.46L176.16,65.76L176.62,65.36L177.02,64.37L177.05,63.08L177.34,61.51L178.96,60.10L181.73,58.99L185.36,58.30L189.45,58.11L193.56,58.44L197.25,59.24L200.10,60.45L201.83,61.91L202.23,63.48L202.19,65.05L202.41,65.29L202.43,65.89L202.78,66.19L203.21,67.90L202.37,101.80L201.32,103.43L198.90,104.83L197.74,105.15L197.67,108.00L197.58,108.10L197.39,108.19L197.14,108.25L196.85,108.27L196.55,108.26L196.28,108.21L196.05,108.13L195.90,108.02L195.85,107.91L195.91,105.67L195.37,105.82L191.11,106.30L186.60,106.23L182.30,105.60L181.92,105.49L181.86,108.07L181.76,108.18L181.58,108.26L181.33,108.32L181.04,108.34L180.74,108.33L180.46,108.28L180.24,108.20L180.09,108.10L180.04,107.98L180.11,104.93L178.70,104.50L176.18,103.03L175.71,102.35"/></g></g><g id="Actor_8.0"><g style="stroke:#000000;stroke-width:0.176"><path d="M192.02,55.77L192.07,56.11L192.24,56.60L192.48,57.01L192.76,57.30L193.06,57.43L193.33,57.39L193.40,57.32"/><path d="M196.02,55.38L195.93,58.95"/><path d="M196.99,55.19L196.89,59.16"/><path d="M202.94,30.28L219.09,28.41L219.32,28.42L219.43,28.44L219.70,28.31"/><path d="M218.67,58.95L219.43,28.44L246.33,36.51L246.61,36.38"/><path d="M218.33,58.92L219.09,28.41L218.93,28.25"/><path d="M240.90,87.51L241.66,57.00L245.33,59.14L245.72,59.48L246.07,59.99L246.34,60.62L246.51,61.32L246.55,62.01L245.90,88.28L245.82,88.89L245.62,89.38L245.34,89.68L244.97,89.78"/><path d="M242.04,56.91L242.06,56.93L242.07,56.75L241.73,56.62L257.03,50.53L257.37,50.66L242.07,56.75L242.00,56.78L241.97,56.83L241.99,56.87L242.04,56.91L241.66,57.00L241.54,56.91L241.52,56.80L241.30,65.74"/><path d="M242.06,56.93L245.71,59.05L245.33,59.14"/><path d="M241.52,56.80L241.58,56.71L241.73,56.62"/><path d="M244.60,87.17L244.53,87.23L244.25,87.27L243.96,87.14L243.68,86.85L243.44,86.44L243.27,85.95L243.18,85.44L243.19,84.95L243.30,84.54L243.49,84.26L243.74,84.14L243.89,84.16L243.87,84.17L243.68,84.45L243.57,84.86L243.56,85.10L243.56,85.35L243.65,85.86L243.79,86.26"/><path d="M243.89,84.16L244.03,84.18L244.33,84.40L244.59,84.75L244.80,85.21L244.93,85.72L244.93,85.81"/><path d="M244.85,63.96L244.84,63.97L244.54,63.84L244.26,63.55L244.02,63.14L243.85,62.65L243.76,62.13L243.78,61.64L243.88,61.24L244.07,60.96L244.33,60.83L244.48,60.86L244.45,60.87L244.26,61.15L244.16,61.56L244.14,61.79L244.14,62.04L244.23,62.56L244.40,63.05L244.64,63.46L244.92,63.75L245.18,63.86L245.11,63.93L244.85,63.96"/><path d="M245.18,63.86L245.33,63.72L245.49,63.38L245.55,62.92L245.51,62.41L245.38,61.90L245.17,61.45L244.91,61.09L244.62,60.88L244.48,60.86"/><path d="M245.34,89.68L245.34,89.69"/><path d="M245.90,88.28L246.28,88.19"/><path d="M245.71,59.05L246.10,59.39L246.45,59.90L246.72,60.53L246.89,61.23L246.93,61.92L246.55,62.01"/><path d="M246.80,36.46L246.42,36.55L245.96,54.94"/><path d="M245.87,54.97L246.33,36.51L246.42,36.55L248.82,37.95L249.20,37.86"/><path d="M246.93,61.92L246.35,85.24"/><path d="M248.42,53.96L248.82,37.95L248.87,37.99L249.31,37.96"/><path d="M257.56,50.38L257.11,50.41L248.87,37.99L248.47,53.94"/><path d="M257.58,50.48L257.52,50.57L257.37,50.66L256.61,81.16"/><path d="M257.11,50.47L257.12,50.45L257.11,50.41L257.11,50.47L257.10,50.50L257.03,50.53"/></g><g style="stroke:#000000;stroke-width:0.529"><path d="M190.98,55.82L190.97,56.26L191.02,56.95L191.19,57.64L191.45,58.27"/><path d="M193.69,55.70L193.73,55.87L193.77,56.38L193.71,56.84L193.56,57.18L193.40,57.32L193.14,57.21L192.86,56.92L192.62,56.51L192.45,56.02L192.41,55.76"/><path d="M241.30,65.74L218.56,58.92L218.33,58.92L200.70,60.95"/><path d="M241.30,65.74L240.76,87.31L240.78,87.41L240.90,87.51L244.57,89.65L244.97,89.78L245.71,89.59L246.00,89.29L246.20,88.80L246.28,88.19L246.35,85.24L256.61,81.16L256.75,81.08L256.82,80.98L257.58,50.48L257.56,50.38L249.31,37.96L249.20,37.86L248.51,37.46L246.80,36.46L246.61,36.38L219.70,28.31L219.46,28.26L219.20,28.24L218.93,28.25L202.94,30.09"/><path d="M244.06,86.77L244.34,87.05L244.60,87.17L244.75,87.03L244.90,86.68L244.96,86.23L244.93,85.81L243.79,86.27L243.82,86.35L244.06,86.77"/></g></g><g id="Actor_11.0"><g style="stroke:#000000;stroke-width:0.176"><path d="M187.42,109.31L187.39,109.28L187.37,109.23L187.36,109.17L187.38,108.24L187.44,108.25L187.49,108.26L187.55,108.26L187.61,108.26L187.61,108.19L187.60,108.11L187.58,108.05L187.56,108.00L187.54,107.96L187.49,107.99L187.45,108.04L187.42,108.10L187.39,108.17L187.38,108.24L186.16,107.83L186.14,108.76L187.36,109.17L187.41,109.18L187.47,109.19L187.53,109.19L187.59,109.19L187.58,109.25L187.57,109.30L187.55,109.32L187.53,109.33"/><path d="M186.06,108.70L186.07,108.72L186.10,108.74L186.14,108.76L186.15,108.82L186.17,108.87L186.20,108.91"/><path d="M186.94,107.24L187.10,107.14L187.32,107.07L187.60,107.03L187.90,107.03L188.19,107.07L188.44,107.14L188.62,107.24L188.71,107.35L188.70,107.46L188.59,107.57L188.51,107.61L188.40,107.65L188.14,107.70L187.85,107.72L187.55,107.70L187.28,107.65L187.06,107.56L187.04,107.55L186.93,107.46L186.89,107.35L186.94,107.24"/><path d="M186.40,107.04L186.45,107.00L186.51,106.97L186.58,106.97L186.31,107.55L186.27,107.58L186.23,107.63L186.19,107.69L186.17,107.76L186.16,107.83L186.12,107.81L186.10,107.79L186.08,107.77"/><path d="M186.10,107.68L186.13,107.62L186.18,107.58L186.25,107.56L186.31,107.55L187.54,107.96L189.02,107.78L189.29,107.20L188.07,106.79L186.58,106.97L186.56,106.95"/><path d="M189.21,109.01L189.22,108.95L189.48,108.36L189.51,107.43L189.24,108.02L189.23,107.95L189.20,107.89L189.15,107.84L189.09,107.80L189.02,107.78L189.05,107.82L189.07,107.87L189.08,107.94L189.09,108.01L189.10,108.08L187.61,108.26L187.59,109.19L189.07,109.01L189.07,109.07L189.05,109.12L189.04,109.15L189.01,109.15"/><path d="M188.11,106.78L188.07,106.79L188.04,106.78"/><path d="M189.07,109.01L189.13,109.00L189.17,108.99L189.20,108.97L189.22,108.95L189.24,108.02L189.22,108.04L189.19,108.05L189.15,108.07L189.10,108.08L189.07,109.01"/><path d="M189.37,107.20L189.33,107.19L189.29,107.20L189.36,107.22L189.42,107.25L189.47,107.30L189.50,107.36L189.51,107.43L189.51,107.41"/></g><g style="stroke:#000000;stroke-width:0.529"><path d="M187.04,109.19L186.20,108.91L186.17,108.89L186.16,108.88L186.11,108.84L186.10,108.82L186.07,108.77L186.06,108.70L186.08,107.77L186.08,107.75L186.10,107.68L186.36,107.10L186.40,107.04L186.41,107.02L186.46,106.98L186.48,106.97L186.50,106.97L186.54,106.96L186.56,106.95L188.04,106.78L188.06,106.77L188.08,106.78L188.10,106.78L188.11,106.78L188.15,106.79L189.37,107.20L189.40,107.21L189.41,107.22L189.46,107.27L189.47,107.28L189.50,107.34L189.51,107.41L189.49,108.34L189.48,108.36L189.47,108.43L189.21,109.01L189.17,109.07L189.16,109.09L189.11,109.12L189.09,109.13L189.07,109.14L189.03,109.15L189.01,109.15L187.53,109.33L187.51,109.33L187.49,109.33L187.47,109.33L187.46,109.33L187.42,109.31L187.04,109.19"/></g></g><g id="Actor_11.1"><g style="stroke:#000000;stroke-width:0.176"><path d="M195.64,112.03L195.70,112.02L195.77,112.02L195.07,112.54L195.95,113.06L195.90,113.08L195.84,113.12L195.80,113.18L195.77,113.25L195.76,113.31L194.87,112.80L194.85,113.73L194.86,113.79L194.88,113.85L194.92,113.88"/><path d="M195.93,114.43L195.93,114.42L195.94,114.40L195.94,114.35L195.94,114.29L195.96,113.36L195.90,113.35L195.85,113.35L195.80,113.33L195.76,113.31L195.74,114.25L194.85,113.73L194.82,113.71L194.81,113.69"/><path d="M194.82,113.75L194.82,113.75"/><path d="M194.95,112.56L195.01,112.54L195.07,112.54L195.01,112.57L194.96,112.61L194.91,112.66L194.88,112.73L194.87,112.80L194.85,112.78L194.84,112.75"/><path d="M195.81,114.40L195.77,114.36L195.74,114.31L195.74,114.25L195.78,114.26L195.83,114.28L195.88,114.29L195.94,114.29L197.52,114.28L197.55,113.35L197.55,113.28L197.55,113.21L197.54,113.14L197.54,113.09L197.54,113.05L195.95,113.06L195.96,113.09L195.96,113.15L195.96,113.22L195.97,113.29L195.96,113.36L197.55,113.35L197.60,113.35L197.66,113.34L197.70,113.32L197.74,113.30L197.71,114.24L197.68,114.25L197.63,114.27L197.58,114.28L197.52,114.28L197.52,114.34L197.52,114.39L197.51,114.42L197.51,114.42"/><path d="M195.78,112.41L195.92,112.31L196.14,112.24L196.41,112.20L196.71,112.19L197.01,112.22L197.26,112.29L197.44,112.38L197.45,112.38L197.55,112.49L197.56,112.61L197.46,112.71L197.28,112.80L197.16,112.83L197.03,112.86L196.74,112.88L196.44,112.87L196.16,112.82L195.94,112.74L195.79,112.63L195.77,112.59L195.74,112.52L195.78,112.41"/><path d="M197.62,114.39L197.67,114.35L197.70,114.30L197.71,114.24L198.41,113.71L198.43,112.78L197.74,113.30L197.73,113.24L197.70,113.17L197.66,113.12L197.60,113.07L197.54,113.05L198.23,112.53L197.35,112.01L195.77,112.02L195.76,112.00"/><path d="M198.43,113.69L198.41,113.71L198.40,113.78L198.37,113.83"/><path d="M198.34,112.54L198.29,112.52L198.23,112.53L198.30,112.55L198.35,112.59L198.40,112.65L198.42,112.71L198.43,112.78L198.45,112.76L198.45,112.74"/><path d="M197.34,112.00L197.35,112.01L197.41,112.01L197.46,112.03"/></g><g style="stroke:#000000;stroke-width:0.529"><path d="M194.82,113.75L194.81,113.69L194.84,112.75L194.84,112.73L194.85,112.67L194.89,112.61L194.90,112.59L194.95,112.56L195.64,112.03L195.66,112.02L195.69,112.02L195.73,112.01L195.74,112.00L195.76,112.00L197.34,112.00L197.36,112.00L197.38,112.00L197.43,112.02L197.46,112.03L198.34,112.54L198.36,112.55L198.40,112.60L198.45,112.67L198.45,112.74L198.43,113.67L198.43,113.69L198.42,113.76L198.38,113.81L198.37,113.83L198.32,113.87L197.62,114.39L197.60,114.40L197.58,114.41L197.54,114.42L197.52,114.42L197.51,114.42L195.93,114.43L195.91,114.43L195.89,114.43L195.83,114.41L195.81,114.40L194.92,113.88L194.91,113.87L194.86,113.83L194.82,113.75"/></g></g><g id="Actor_9.0"><g style="stroke:#000000;stroke-width:0.176"><path d="M176.66,33.07L177.09,34.78L178.96,36.38L182.07,37.68L186.07,38.56L190.54,38.92L194.99,38.71L198.93,37.96L201.95,36.75L203.71,35.22L204.02,33.52"/><path d="M177.31,32.16L177.28,33.51L178.05,35.13L180.15,36.59L183.35,37.75L187.32,38.47L191.61,38.67L195.77,38.34L199.34,37.51L201.78,36.34L201.94,36.26L203.28,34.75L203.31,33.39L201.97,34.91L199.37,36.15L195.80,36.98L191.64,37.31L187.35,37.11L183.39,36.39L180.18,35.24L178.08,33.77L177.31,32.16L177.43,31.87"/><path d="M202.92,31.41L202.87,33.36L201.58,34.82L199.07,36.02L196.11,36.71L195.62,36.82L191.60,37.14L187.45,36.95L183.64,36.26L180.53,35.14L178.50,33.72L177.76,32.16L177.79,30.99"/><path d="M177.83,29.15L178.57,30.72L180.60,32.13L183.70,33.25L187.53,33.94L191.68,34.14L195.69,33.82L196.11,33.72L199.14,33.01L201.65,31.81L202.95,30.35"/><path d="M203.31,33.39L203.28,32.46"/></g><g style="stroke:#000000;stroke-width:0.529"><path d="M176.51,51.08L176.67,51.73L178.54,53.32L181.65,54.63L185.65,55.51L190.12,55.86L194.56,55.65L198.51,54.91L201.52,53.70L203.28,52.16L203.60,50.47L204.02,33.52L203.28,32.46L203.25,31.76L202.92,31.41L202.95,30.35L202.89,28.78L201.49,27.27L198.89,25.99L195.38,25.07L191.33,24.62L187.20,24.68L183.41,25.25L180.39,26.27L178.46,27.62L177.83,29.15L177.79,30.99L177.43,31.87L176.66,33.07L176.24,50.02L176.51,51.08"/></g></g><g id="Actor_11.2"><g style="stroke:#000000;stroke-width:0.176"><path d="M180.24,114.52L180.21,114.48L180.19,114.43L180.18,114.37L180.20,113.44L179.12,112.98L179.10,113.91L180.18,114.37L180.22,114.39L180.28,114.40L180.34,114.40L180.40,114.40L180.42,113.47L180.36,113.47L180.30,113.46L180.25,113.45L180.20,113.44L180.21,113.37L180.24,113.30L180.28,113.24L180.32,113.20L180.37,113.17L179.29,112.71L179.75,112.15L179.69,112.15L179.62,112.17"/><path d="M179.03,113.85L179.04,113.87L179.06,113.89L179.10,113.91L179.10,113.97L179.13,114.02L179.16,114.06"/><path d="M179.11,112.77L179.16,112.73L179.22,112.71L179.29,112.71L179.24,112.74L179.19,112.78L179.15,112.84L179.13,112.91L179.12,112.98L179.08,112.96L179.06,112.94L179.06,112.91"/><path d="M180.03,112.43L180.21,112.34L180.46,112.28L180.75,112.26L181.05,112.28L181.33,112.33L181.55,112.41L181.70,112.51L181.75,112.62L181.70,112.74L181.56,112.83L181.46,112.87L181.34,112.91L181.07,112.95L180.77,112.95L180.74,112.95L180.47,112.92L180.22,112.85L180.03,112.76L179.93,112.65L179.93,112.53L180.03,112.43"/><path d="M180.36,114.54L180.37,114.54L180.38,114.51L180.39,114.46L180.40,114.40L181.94,114.30L182.00,114.29L182.05,114.28L182.08,114.26L182.11,114.24L182.57,113.68L182.59,112.75L182.13,113.31L182.12,113.24L182.09,113.18L182.05,113.13L181.99,113.09L181.92,113.07L181.93,113.10L181.95,113.16L181.96,113.22L181.96,113.30L181.96,113.37L180.42,113.47L180.42,113.40L180.41,113.33L180.40,113.26L180.39,113.21L180.37,113.17L181.92,113.07L182.38,112.51L181.30,112.04L179.75,112.15L179.74,112.13"/><path d="M179.64,112.16L179.63,112.16"/><path d="M179.57,112.21L179.58,112.21"/><path d="M181.28,112.03L181.30,112.04L181.35,112.04L181.40,112.05"/><path d="M181.90,114.44L181.92,114.43L181.93,114.41L181.94,114.36L181.94,114.30L181.96,113.37L182.02,113.36L182.07,113.35L182.11,113.33L182.13,113.31L182.11,114.24L182.10,114.31L182.06,114.36"/><path d="M182.01,114.40L182.04,114.38L182.02,114.40"/><path d="M182.60,112.72L182.59,112.75L182.58,112.68L182.56,112.62L182.51,112.56L182.45,112.52L182.38,112.51L182.43,112.50L182.48,112.51"/><path d="M182.58,113.66L182.57,113.68L182.56,113.74"/></g><g style="stroke:#000000;stroke-width:0.529"><path d="M179.57,112.21L179.11,112.77L179.08,112.83L179.07,112.85L179.06,112.91L179.03,113.85L179.04,113.91L179.05,113.93L179.08,113.99L179.10,114.01L179.14,114.05L179.16,114.06L180.24,114.52L180.30,114.54L180.32,114.54L180.34,114.54L180.36,114.54L181.90,114.44L181.92,114.44L181.98,114.42L182.00,114.41L182.06,114.36L182.53,113.80L182.56,113.74L182.57,113.72L182.58,113.66L182.60,112.72L182.59,112.66L182.59,112.64L182.56,112.58L182.54,112.56L182.50,112.52L182.48,112.51L181.40,112.05L181.34,112.03L181.32,112.03L181.30,112.03L181.28,112.03L179.74,112.13L179.72,112.13L179.66,112.15L179.64,112.16"/><path d="M179.58,112.21L179.63,112.16"/><path d="M182.01,114.40L182.02,114.40"/><path d="M182.00,114.41L182.01,114.40"/></g></g><g id="Actor_4.0"><g style="stroke:#000000;stroke-width:0.176"><path d="M73.66,52.07L72.52,52.34L72.12,52.21"/><path d="M72.52,52.34L130.14,85.93L131.28,85.66"/><path d="M75.26,81.28L74.98,81.07L74.65,81.02L74.36,81.16L74.14,81.48L74.02,81.94L74.00,82.50L74.10,83.09L74.29,83.65L74.57,84.12L74.89,84.45L75.23,84.60L75.54,84.55L75.80,84.32L75.91,84.06"/><path d="M76.49,60.76L76.38,61.02L76.12,61.25L75.81,61.29L75.47,61.15L75.15,60.82L74.88,60.35L74.68,59.79L74.58,59.20L74.60,58.64L74.72,58.18L74.94,57.86L75.23,57.71L75.56,57.77L75.84,57.97"/><path d="M82.62,84.52L81.48,84.78L80.92,83.86L80.48,82.80L79.82,80.30L79.17,74.70L80.43,75.43"/><path d="M80.38,71.89L79.24,72.16L79.65,69.21L80.90,65.81L81.38,65.26L81.97,65.01L82.52,65.00"/><path d="M79.24,72.16L81.95,73.74L82.03,72.86"/><path d="M81.48,84.78L83.50,86.83L85.60,87.68L86.43,87.67L87.01,87.42"/><path d="M81.62,82.52L80.48,82.78"/><path d="M80.90,65.81L82.04,65.54"/><path d="M83.75,69.17L84.27,69.25L84.77,69.63L85.30,70.40L85.92,71.90L86.52,74.81L89.11,75.89L88.96,75.09"/><path d="M87.24,81.14L86.38,80.49L86.26,81.00L85.53,82.83L84.88,83.44"/><path d="M86.52,74.81L87.66,74.55"/><path d="M96.54,88.14L95.43,87.49L95.28,93.42L98.05,95.03L98.07,94.12"/><path d="M95.28,93.42L96.42,93.15"/><path d="M102.04,88.26L100.90,88.53L98.25,86.98L98.23,87.83L95.46,86.21L95.63,79.57L96.74,80.22"/><path d="M95.46,86.21L96.60,85.95"/><path d="M98.45,79.00L98.43,79.92L95.66,78.30L95.80,72.49L96.92,73.14"/><path d="M95.66,78.30L96.80,78.04"/><path d="M98.25,86.98L98.34,86.96"/><path d="M98.48,77.83L100.84,79.21L101.28,79.52L102.11,80.48L102.30,80.83L102.46,81.26L102.70,82.41L105.69,84.14L105.59,83.16"/><path d="M100.84,79.21L101.98,78.94"/><path d="M103.73,97.41L102.59,97.68L101.34,90.93L102.67,91.71"/><path d="M103.77,90.13L103.94,91.16L101.08,89.49L102.22,89.22"/><path d="M101.08,89.49L100.90,88.53"/><path d="M102.00,84.88L102.20,84.76L102.37,84.54L103.51,84.28"/><path d="M102.59,97.68L105.32,99.27L105.14,98.24"/><path d="M102.37,84.54L102.67,83.68L103.54,84.19"/><path d="M102.70,82.41L103.84,82.14"/><path d="M103.59,80.96L102.45,81.23"/><path d="M102.11,80.48L103.25,80.21"/><path d="M118.03,105.75L116.89,106.02L112.04,103.19L112.27,93.99L113.38,94.64"/><path d="M112.04,103.19L113.18,102.92"/><path d="M113.68,82.91L112.56,82.26L112.33,91.45L115.12,93.07L115.14,92.16"/><path d="M112.33,91.45L113.47,91.19"/><path d="M115.25,87.61L117.09,88.68L117.84,89.31L118.51,90.26L119.05,91.45L119.45,92.78L119.92,95.87L121.06,95.61"/><path d="M116.89,106.02L118.48,106.54L119.95,106.22L119.98,106.20"/><path d="M117.09,88.68L118.23,88.41"/><path d="M120.84,98.99L119.85,98.41L119.59,99.85L118.79,101.72L118.22,102.26"/><path d="M119.93,101.45L118.79,101.72"/><path d="M119.92,95.87L122.86,97.59L122.72,96.58"/><path d="M119.05,91.45L120.19,91.18"/><path d="M127.10,113.91L126.99,114.16L126.74,114.40L126.42,114.44L126.09,114.29L125.76,113.97L125.50,113.51L125.29,112.94L125.20,112.34L125.21,111.79L125.33,111.32L125.55,111.00L125.84,110.86L126.17,110.91L126.46,111.12"/><path d="M127.04,87.82L126.75,87.61L126.42,87.56L126.13,87.70L125.92,88.02L125.79,88.48L125.79,88.54L125.78,89.04L125.87,89.63L126.07,90.19L126.34,90.66L126.67,90.99L127.00,91.14L127.32,91.09L127.57,90.86L127.69,90.60"/><path d="M129.69,119.95L130.06,119.86L130.35,119.55L130.55,119.07L130.62,118.45L131.76,118.18"/><path d="M130.14,85.93L130.53,86.26L130.88,86.77L131.15,87.41L131.32,88.10L131.36,88.79L130.62,118.45"/><path d="M130.83,119.68L130.81,119.68"/><path d="M131.36,88.79L132.50,88.52"/></g><g style="stroke:#000000;stroke-width:0.529"><path d="M70.93,85.39L71.28,85.90L71.67,86.23L129.29,119.82L129.69,119.95L130.83,119.68L131.19,119.59L131.49,119.29L131.68,118.80L131.76,118.18L132.50,88.52L132.46,87.83L132.29,87.14L132.02,86.50L131.67,86.00L131.28,85.66L120.16,79.18L73.66,52.07L73.26,51.94L71.76,52.30L71.46,52.61L71.27,53.09L71.19,53.71L70.45,83.37L70.49,84.06L70.66,84.76L70.93,85.39"/><path d="M75.91,84.06L75.97,83.92L76.04,83.40L76.00,82.82L75.85,82.24L75.61,81.72L75.31,81.31L75.26,81.28L75.16,81.68L75.14,82.23L75.24,82.83L75.43,83.39L75.71,83.86L75.91,84.06"/><path d="M75.95,59.90L75.82,59.52L75.72,58.93L75.74,58.37L75.84,57.97L75.89,58.01L76.19,58.41L76.43,58.93L76.58,59.52L76.62,60.10L76.55,60.62L76.49,60.76L76.29,60.55L76.01,60.08L75.95,59.90"/><path d="M80.43,75.43L80.95,80.04L81.62,82.52L82.06,83.60L82.62,84.52L84.64,86.56L86.74,87.42L87.02,87.41L87.49,86.87L88.75,83.47L88.95,82.42L87.24,81.14L86.67,82.57L86.01,83.17L84.88,83.44L84.33,83.50L83.83,83.24L83.31,82.65L82.73,81.49L82.09,79.22L81.95,78.11L81.89,76.28L80.43,75.43"/><path d="M80.43,71.51L80.38,71.89L82.03,72.86L82.10,72.03L82.29,71.12L82.42,70.75L83.14,69.51L83.75,69.17L84.88,68.91L85.40,68.99L85.90,69.36L86.44,70.13L87.06,71.64L87.66,74.55L88.96,75.09L88.19,70.77L87.92,69.90L87.48,68.82L86.92,67.90L84.89,65.85L82.79,65.00L82.52,65.00L82.04,65.54L80.79,68.94L80.43,71.51"/><path d="M96.42,93.15L96.54,88.14L98.20,89.10L98.07,94.12L96.42,93.15"/><path d="M97.15,86.27L96.60,85.95L96.74,80.22L98.40,81.19L98.35,83.28L100.71,84.65L101.66,84.93L102.00,84.88L103.14,84.61L103.34,84.49L103.51,84.28L103.54,84.19L105.65,85.42L105.21,87.57L104.88,88.27L104.46,88.80L103.62,89.30L103.77,90.13L102.22,89.22L102.04,88.26L99.39,86.72L98.34,86.96L97.15,86.27"/><path d="M97.29,78.32L96.80,78.04L96.92,73.14L101.17,75.61L101.25,75.64L102.78,76.66L104.13,78.42L105.00,80.32L105.52,82.45L105.59,83.16L103.84,82.14L103.60,80.99L103.44,80.56L103.25,80.21L102.42,79.26L101.98,78.94L100.92,78.32L99.62,77.57L98.48,77.83L98.45,79.00L97.29,78.32"/><path d="M103.16,94.33L102.67,91.71L104.18,92.59L105.14,98.24L103.73,97.41L103.16,94.33"/><path d="M113.18,102.92L113.38,94.64L115.05,95.62L114.92,101.08L116.76,102.15L117.51,102.40L119.35,101.99L119.93,101.45L120.73,99.58L120.84,98.99L122.80,100.13L122.45,102.14L121.17,105.09L119.98,106.20L119.62,106.28L118.03,105.75L113.18,102.92"/><path d="M113.47,91.19L113.68,82.91L117.41,85.09L118.99,86.41L120.40,88.40L121.52,90.90L122.27,93.45L122.72,96.58L121.06,95.61L120.59,92.52L120.19,91.18L119.65,89.99L118.98,89.04L118.23,88.41L116.39,87.34L115.25,87.61L115.14,92.16L113.47,91.19"/><path d="M126.96,113.76L126.90,113.70L126.63,113.23L126.43,112.67L126.34,112.08L126.35,111.52L126.46,111.12L126.50,111.16L126.81,111.56L127.05,112.08L127.19,112.67L127.23,113.25L127.17,113.77L127.10,113.91L126.96,113.76"/><path d="M126.96,89.05L126.92,88.78L126.93,88.22L127.04,87.82L127.09,87.85L127.39,88.26L127.63,88.78L127.77,89.36L127.82,89.95L127.75,90.46L127.69,90.60L127.48,90.40L127.21,89.93L127.01,89.37L126.96,89.05"/></g></g><g id="Actor_5.0"><g style="stroke:#000000;stroke-width:0.176"><path d="M105.23,48.97L105.63,49.10L107.14,48.75"/><path d="M107.76,52.17L107.09,51.78L106.81,51.70L106.58,51.77L106.38,51.99L106.26,52.34L106.22,52.77L106.28,53.25L106.41,53.72L106.54,54.00L106.78,54.34L107.02,54.54L108.54,54.18"/><path d="M105.63,49.10L160.78,81.25L162.30,80.90"/><path d="M107.02,54.54L108.09,55.16L108.75,55.00L108.77,54.98L108.90,54.67L108.94,54.41"/><path d="M108.09,55.16L108.35,55.24L108.58,55.18L108.75,55.00"/><path d="M108.96,72.65L109.34,57.23L109.62,56.48L110.21,55.75L110.97,55.49L111.52,55.65"/><path d="M109.34,57.23L109.97,57.38L110.52,57.69L110.64,57.87L110.70,58.13"/><path d="M110.32,73.38L110.31,73.44"/><path d="M126.92,88.60L127.69,89.05"/><path d="M155.65,104.01L155.42,104.28L154.70,104.52L153.80,104.26L132.42,91.80"/><path d="M153.80,104.26L155.32,103.91"/><path d="M158.25,105.25L157.58,104.85L157.32,104.77L157.08,104.83L156.89,105.03L156.76,105.34L156.71,105.75L156.74,106.20L156.85,106.65L157.02,107.06L157.25,107.39L157.51,107.61L159.03,107.25"/><path d="M157.51,107.61L158.58,108.23L159.23,108.08L159.09,108.24L158.85,108.31L158.58,108.23"/><path d="M159.61,83.95L158.09,84.30L157.83,84.09L157.61,83.76L157.43,83.34L157.32,82.89L157.29,82.44L157.34,82.04L157.47,81.73L157.66,81.53L157.90,81.47L158.16,81.55L158.83,81.94"/><path d="M158.09,84.30L159.16,84.93L159.81,84.77L159.67,84.94L159.44,85.01L159.16,84.93"/><path d="M159.23,108.08L159.28,108.02L159.41,107.67L159.42,107.48"/><path d="M159.81,84.77L159.86,84.72L159.99,84.37L160.00,84.18"/><path d="M160.43,111.04L160.81,110.94L161.08,110.66L161.28,110.19L161.37,109.54L162.01,84.12L161.96,83.43L161.78,82.69L161.54,82.12L161.19,81.61L160.78,81.25"/><path d="M161.37,109.54L162.89,109.18"/><path d="M162.01,84.12L163.52,83.76"/></g><g style="stroke:#000000;stroke-width:0.529"><path d="M132.35,94.77L160.04,110.91L160.43,111.04L162.28,110.62L162.59,110.32L162.80,109.83L162.89,109.18L163.52,83.76L163.50,83.20L163.34,82.46L163.07,81.80L162.71,81.26L162.30,80.90L107.14,48.75L106.82,48.63L106.42,48.69L104.85,49.07L104.58,49.35L104.38,49.83L104.29,50.47L103.81,69.65"/><path d="M108.37,54.06L108.13,53.76L107.93,53.35L107.79,52.88L107.74,52.42L107.76,52.17L108.16,52.40L108.41,52.62L108.64,52.95L108.82,53.36L108.92,53.82L108.95,54.27L108.94,54.41L108.54,54.18L108.37,54.06"/><path d="M132.45,90.58L155.32,103.91L155.65,104.01L156.02,103.58L156.32,102.78L156.77,84.88L156.74,84.74L156.34,83.23L155.72,81.95L154.94,80.96L154.39,80.54L111.87,55.75L111.52,55.65L111.20,56.02L110.81,57.09L110.70,58.13L110.32,73.45"/><path d="M119.68,87.38L113.65,83.87"/><path d="M158.70,106.94L158.54,106.71L158.37,106.29L158.26,105.84L158.23,105.39L158.25,105.25L158.67,105.49L158.95,105.75L159.18,106.12L159.25,106.30L159.39,106.76L159.44,107.24L159.42,107.48L159.03,107.25L158.77,107.04L158.70,106.94"/><path d="M159.84,84.08L159.61,83.95L159.35,83.73L159.12,83.40L158.95,82.99L158.84,82.54L158.81,82.09L158.83,81.94L159.25,82.19L159.53,82.45L159.76,82.82L159.84,83.00L159.97,83.46L160.02,83.94L160.00,84.18L159.84,84.08"/></g></g><g id="Actor_3.0"><g style="stroke:#000000;stroke-width:0.176"><path d="M72.95,39.60L72.95,39.60L72.95,39.57L72.95,39.39L72.90,39.35L72.59,38.99L72.32,38.47L72.13,37.84L72.04,37.26L71.95,37.24L71.95,37.27"/><path d="M72.29,38.62L72.28,38.59L72.30,38.66L72.55,39.13L72.46,38.96"/><path d="M72.31,38.68L72.45,38.95"/><path d="M72.28,38.59L72.19,38.33L72.28,38.59"/><path d="M72.08,38.01L72.19,38.33"/><path d="M72.09,38.02L72.18,38.32"/><path d="M72.06,37.91L72.06,37.92"/><path d="M72.07,37.98L72.01,37.61L72.06,37.90"/><path d="M71.95,37.24L72.01,37.60L71.96,37.30"/><path d="M72.01,37.60L72.01,37.61"/><path d="M72.01,37.63L72.00,37.61"/><path d="M72.04,37.26L71.89,34.96L71.91,31.69L72.25,28.58L72.17,28.49L72.17,28.47"/><path d="M71.97,37.36L71.97,37.38"/><path d="M89.81,47.35L90.00,47.20L90.58,45.93L90.82,44.25L90.67,42.35L90.17,40.45L89.36,38.78L88.35,37.53L87.76,37.09L76.68,30.64L76.61,30.65L76.60,30.67L75.26,32.38L74.82,32.19L74.06,32.23L73.62,32.55L73.43,32.73L73.35,32.86L73.04,33.50L73.00,33.66L72.86,34.31L72.85,34.40L72.72,34.28L72.57,34.05L72.46,33.75L72.39,33.41L72.37,33.09L72.41,32.80L72.49,32.58L72.55,32.51L72.61,32.45L72.76,32.43L72.93,32.52L73.08,32.71L73.21,32.98L73.24,33.08L73.50,32.45L73.60,28.09L73.24,27.83L72.96,27.70L72.67,27.77L72.43,28.04L72.27,28.49L72.25,28.58"/><path d="M72.17,28.45L72.19,28.38L72.17,28.44"/><path d="M72.18,28.42L72.32,27.94"/><path d="M72.19,28.38L72.25,28.17"/><path d="M72.32,27.94L72.26,28.17L72.32,27.95"/><path d="M72.48,27.73L72.34,27.91L72.57,27.60"/><path d="M72.27,28.10L72.24,28.18L72.27,28.11"/><path d="M72.24,28.18L72.24,28.19"/><path d="M87.42,47.70L87.36,47.65L86.14,46.59L75.07,40.13L75.01,40.08L75.01,39.99L80.55,43.22L80.55,43.30L80.56,43.32L81.83,44.43L76.29,41.20L75.70,40.76L74.63,39.81L74.57,39.73L74.45,39.64L73.93,38.98L73.47,38.14L73.43,39.74L73.43,39.93L73.44,39.94"/><path d="M91.20,50.29L91.20,50.29L91.19,50.28L91.20,50.08L91.11,50.04L83.16,45.41L73.38,39.70L73.32,39.66L73.31,39.84L73.31,39.86L73.32,39.87"/><path d="M73.37,39.70L73.37,39.90L73.36,39.90L73.36,39.88L73.36,39.69"/><path d="M73.37,39.90L73.38,39.91"/><path d="M73.36,39.90L73.37,39.90"/><path d="M72.95,39.39L73.32,39.66L73.36,37.84L73.47,38.14"/><path d="M72.60,39.22L72.61,39.23L72.55,39.13L72.59,39.21"/><path d="M72.61,39.23L72.79,39.43L72.61,39.24"/><path d="M72.95,39.60L72.79,39.43"/><path d="M75.01,39.99L74.58,39.67L73.91,38.85L73.36,37.75L73.00,36.48L72.86,35.22L72.96,34.05L73.29,33.11L73.81,32.52L74.47,32.32L75.20,32.54L86.27,39.00L86.71,39.33L87.38,40.14L87.93,41.24L88.29,42.51L88.43,43.77L88.33,44.94L88.00,45.88L87.48,46.47L86.82,46.67L86.09,46.45L86.09,46.54L86.14,46.59L86.58,46.77L86.71,46.77L86.66,46.75L86.09,46.54"/><path d="M73.36,37.84L73.13,37.23L72.90,36.23L72.81,35.24L72.85,34.40"/><path d="M73.24,33.08L73.17,33.23"/><path d="M93.72,38.12L92.16,38.49L91.60,38.22L73.92,27.91L73.74,27.96L73.73,27.96L73.73,27.99L73.62,32.07L73.66,31.96L73.87,31.50L74.12,31.11L74.41,30.79L74.73,30.56L74.82,30.52L74.73,30.56"/><path d="M73.62,32.07L73.50,32.45"/><path d="M73.49,32.46L74.07,31.21L74.82,30.61L74.92,30.52L75.96,30.47L76.55,30.73L87.62,37.18L86.34,38.84L86.77,39.16L87.51,40.07L88.10,41.29L88.47,42.68L88.58,44.07L88.41,45.31L87.98,46.23L87.35,46.74L86.71,46.77"/><path d="M73.24,27.83L73.25,27.62L73.26,27.62L73.45,27.58L73.36,27.53L73.04,27.44"/><path d="M91.06,50.22L91.06,50.21L91.06,50.01L91.35,38.44L73.66,28.13L73.60,28.09L73.61,27.90L73.62,27.88L73.81,27.84L73.86,27.88L73.67,27.92L73.66,27.92L73.62,27.88"/><path d="M73.66,28.13L73.67,27.93L73.61,27.89"/><path d="M73.92,27.91L73.86,27.88L73.67,27.92L73.66,27.94L73.65,28.13"/><path d="M73.67,27.92L73.67,27.93"/><path d="M75.01,27.22L73.45,27.58L73.81,27.84"/><path d="M74.63,39.81L75.07,40.13L76.34,41.24L81.88,44.47L81.83,44.43L87.36,47.65L87.96,47.91L88.99,47.86L89.84,47.17L90.42,45.92L90.65,44.26L90.51,42.38L90.01,40.50L89.21,38.85L88.21,37.62L87.62,37.18L87.69,37.11L88.06,37.02L88.66,37.46L89.67,38.71L90.47,40.38L90.98,42.27L91.12,44.18L90.89,45.86L90.30,47.13L89.44,47.82L89.14,47.89L88.97,47.94"/><path d="M74.01,36.81L74.39,36.72L74.45,34.39L74.07,34.48L74.01,36.81L74.04,37.30L74.16,37.78L74.35,38.23L74.59,38.58L74.87,38.82L86.29,45.47L86.61,45.40L86.40,45.34L86.13,45.23L85.97,45.09L85.91,44.94L85.57,44.86L85.31,44.75L85.14,44.61L85.09,44.46L84.75,44.38L84.48,44.27L84.32,44.13L84.26,43.98L83.92,43.90L83.66,43.78L83.49,43.65L83.43,43.50L83.10,43.42L82.83,43.30L82.66,43.17L82.61,43.02L82.27,42.94L82.01,42.82L81.84,42.68L81.78,42.54L81.45,42.46L81.18,42.34L81.01,42.20L80.96,42.06L80.62,41.97L80.36,41.86L80.19,41.72L80.13,41.57L79.79,41.49L79.53,41.38L79.36,41.24L79.31,41.09L78.97,41.01L78.70,40.90L78.54,40.76L78.48,40.61L78.14,40.53L77.88,40.42L77.71,40.28L77.66,40.13L77.32,40.05L77.05,39.93L76.89,39.80L76.83,39.65L76.49,39.57L76.23,39.45L76.06,39.32L76.01,39.17L75.67,39.09L75.40,38.97L75.24,38.84L75.19,38.74L74.87,38.82"/><path d="M74.57,39.73L75.02,40.08L75.00,40.07"/><path d="M75.19,38.74L75.18,38.68L75.00,38.63L74.84,38.54L74.69,38.41L74.58,38.26L74.54,38.18L74.41,37.72L74.38,37.22L74.39,36.72"/><path d="M74.07,34.48L74.12,34.05L74.26,33.71L74.47,33.50L74.70,33.44L74.66,33.45L74.51,33.65L74.46,33.97L74.45,34.39"/><path d="M74.70,33.44L74.72,33.43L75.00,33.52L77.78,35.14L77.66,40.13"/><path d="M74.97,30.45L74.82,30.52L74.97,30.46"/><path d="M74.82,30.52L75.07,30.41L75.44,30.34L75.82,30.36L76.21,30.47L75.97,30.40"/><path d="M75.70,40.76L75.95,40.97L76.34,41.24"/><path d="M75.30,33.70L75.18,38.68"/><path d="M75.20,32.54L75.20,32.45L75.26,32.38L86.34,38.84L86.28,38.91L86.27,39.00"/><path d="M75.36,30.35L75.28,30.37"/><path d="M75.83,30.36L76.08,30.38L76.68,30.64L76.99,30.57L76.38,30.31L75.55,30.35"/><path d="M76.01,39.17L76.13,34.18"/><path d="M76.83,39.65L76.96,34.66"/><path d="M76.99,30.57L88.06,37.02"/><path d="M77.78,35.14L78.61,35.62L78.48,40.61"/><path d="M79.31,41.09L79.43,36.10L78.61,35.62"/><path d="M80.13,41.57L80.26,36.58L79.43,36.10"/><path d="M80.96,42.06L81.08,37.07L80.26,36.58"/><path d="M80.55,43.22L86.09,46.45"/><path d="M81.08,37.07L81.91,37.55L81.78,42.54"/><path d="M81.88,44.47L87.42,47.70L87.81,47.89L87.41,47.70L87.81,47.89"/><path d="M82.61,43.02L82.73,38.03L81.91,37.55"/><path d="M83.43,43.50L83.56,38.51L82.73,38.03"/><path d="M84.26,43.98L84.38,38.99L83.56,38.51"/><path d="M84.38,38.99L85.21,39.47L85.09,44.46"/><path d="M85.91,44.94L86.04,39.95"/><path d="M85.21,39.47L86.42,40.18L86.69,40.41L86.94,40.77L87.13,41.21L87.25,41.70L87.28,42.18L87.22,44.51L87.16,44.94L87.03,45.28L86.82,45.50L86.57,45.56L86.29,45.47"/><path d="M86.61,45.40L86.74,45.42L86.75,45.47L86.79,45.50"/><path d="M86.74,45.42L86.86,40.64"/><path d="M89.00,47.92L89.21,47.83L88.95,47.95L88.59,48.01L88.20,47.99L87.81,47.89"/><path d="M89.90,47.25L89.62,47.56L89.30,47.80L89.14,47.89"/><path d="M89.30,47.80L89.21,47.83"/><path d="M89.16,38.59L88.83,38.15L89.18,38.63"/><path d="M88.83,38.15L88.48,37.75L88.83,38.15"/><path d="M88.48,37.75L88.46,37.73"/><path d="M89.90,47.25L90.15,46.86L90.36,46.40L90.53,45.88L90.65,45.31L90.63,45.41"/><path d="M90.15,46.86L90.15,46.86"/><path d="M90.65,45.31L90.69,44.97L90.65,45.31"/><path d="M90.36,41.30L90.34,41.22L90.36,41.30L90.53,41.98"/><path d="M90.15,40.63L90.34,41.22"/><path d="M91.13,50.05L91.13,50.25L91.13,50.25L91.13,50.26"/><path d="M91.12,50.25L91.13,50.25L91.12,50.25L91.12,50.24L91.12,50.04"/><path d="M91.69,50.52L91.69,50.52L91.68,50.50L91.69,50.32L91.20,50.08L91.49,38.52L92.05,38.79L92.47,39.13L92.83,39.63L93.09,40.23L93.22,40.81L93.45,43.09L93.44,46.36L93.01,49.48L92.98,49.58L92.78,50.04L92.46,50.33L92.06,50.42L91.69,50.32"/><path d="M91.13,50.26L91.12,50.25"/><path d="M91.50,44.27L91.49,44.37L91.52,44.70L91.61,45.02L91.77,45.31L91.96,45.53L92.18,45.66L92.39,45.68L92.58,45.60L92.72,45.42L92.80,45.15L92.81,45.00L92.80,44.84L92.74,44.51L92.61,44.20L92.44,43.94L92.23,43.76L92.01,43.68L91.81,43.71L91.64,43.85L91.53,44.08L91.50,44.27"/><path d="M90.72,44.69L90.69,44.97"/><path d="M91.67,38.25L91.50,38.31L91.49,38.32L91.49,38.52L91.35,38.44L91.36,38.25L91.36,38.23L91.54,38.19"/><path d="M91.42,38.27L91.43,38.28L91.43,38.27L91.60,38.22L91.42,38.27L91.41,38.31L91.41,38.48"/><path d="M91.41,38.48L91.43,38.28L91.49,38.31"/><path d="M91.42,38.38L91.42,38.48"/><path d="M92.42,50.58L92.82,50.42L93.14,50.03L93.30,49.56L93.64,47.51L93.74,45.32L93.64,45.38"/><path d="M92.93,50.13L93.14,49.59L93.30,49.56L94.70,49.23"/><path d="M92.92,50.13L93.13,49.59L93.61,45.38L93.35,40.82L93.52,40.78L93.51,40.67L93.32,39.96L93.00,39.31L92.59,38.80L92.16,38.49L91.99,38.54L91.98,38.55L91.98,38.75"/><path d="M93.01,49.48L93.14,49.59L93.62,45.38"/><path d="M95.13,45.03L93.74,45.32L93.79,44.25L93.52,40.78L94.92,40.45"/><path d="M93.18,40.09L93.35,40.82L93.22,40.81"/></g><g style="stroke:#000000;stroke-width:0.529"><path d="M72.61,39.24L72.78,39.44L72.60,39.22L72.44,38.96L72.30,38.66L72.29,38.62"/><path d="M72.01,37.63L72.07,37.98L72.18,38.33L72.30,38.66"/><path d="M71.97,37.38L72.00,37.61L72.04,37.78"/><path d="M72.17,28.45L72.17,28.47L71.78,32.65L71.95,37.24L71.98,37.46L71.97,37.39"/><path d="M72.09,38.02L72.07,37.98L72.06,37.92"/><path d="M72.06,37.91L72.06,37.90"/><path d="M72.08,38.01L72.07,37.98"/><path d="M72.04,37.77L72.00,37.61"/><path d="M71.95,37.27L71.96,37.29"/><path d="M72.18,28.42L72.19,28.38L72.17,28.47L72.17,28.44"/><path d="M91.13,50.26L91.12,50.25L91.69,50.52L91.93,50.61L92.17,50.63L92.40,50.59L92.42,50.58L94.06,50.21L94.36,50.00L94.59,49.62L94.70,49.23L95.13,45.03L94.92,40.45L94.83,39.95L94.63,39.32L94.34,38.77L94.00,38.34L93.72,38.12L75.01,27.22L74.72,27.10L74.37,27.12L73.04,27.44L72.74,27.51L72.58,27.59L72.44,27.74L72.32,27.94L72.34,27.91"/><path d="M72.32,27.94L72.24,28.18L72.19,28.38L72.24,28.19"/><path d="M72.95,39.59L72.78,39.44L72.95,39.60L73.38,39.91L91.12,50.25L91.06,50.21"/><path d="M72.60,39.22L72.59,39.21"/></g></g><g id="Actor_7.0"><g style="stroke:#000000;stroke-width:0.176"><path d="M146.59,109.86L146.62,108.59L140.05,104.76L139.45,104.25L139.27,103.71"/><path d="M140.02,106.03L140.05,104.76"/><path d="M146.62,108.59L147.57,109.00L148.79,109.28L150.16,109.42L154.35,109.36L157.09,109.63L158.36,109.93"/><path d="M151.53,110.67L151.56,109.40"/><path d="M156.13,111.34L155.48,110.74L155.17,110.71"/><path d="M155.48,110.74L157.06,110.91L159.24,111.42"/><path d="M155.64,104.00L155.66,104.00"/><path d="M170.35,117.51L170.38,116.24L161.44,111.03L161.41,112.30"/><path d="M161.10,110.88L161.44,111.03"/><path d="M164.38,101.80L165.29,101.59L165.59,101.68L163.06,102.27"/><path d="M165.59,101.68L165.98,101.91L166.55,101.77L163.12,99.78"/><path d="M169.98,123.49L170.01,122.22L169.42,121.73L169.23,121.20"/><path d="M170.01,122.22L176.00,125.71L175.96,126.98"/><path d="M170.38,116.24L171.57,117.23L171.93,118.29L171.66,118.86"/><path d="M176.00,125.71L176.95,126.12L178.17,126.41L179.54,126.55L180.94,126.53L180.90,127.80"/><path d="M180.22,122.59L179.83,122.50L179.60,122.39L179.47,122.25L179.47,122.11L179.58,121.98L179.81,121.87L180.12,121.79L180.49,121.77L180.86,121.78L181.21,121.85L181.49,121.95L181.67,122.08L181.74,122.22L181.68,122.36L181.51,122.48L181.24,122.57L180.89,122.62L180.52,122.63L180.22,122.59"/><path d="M180.94,126.53L183.73,126.48L186.47,126.76L188.91,127.34L190.82,128.16L199.76,133.37L200.95,134.35L201.31,135.41L201.04,135.98"/><path d="M192.40,121.16L192.54,121.06L192.77,120.50L192.50,119.94L191.76,119.43L190.64,119.02L189.31,118.78L187.75,118.70L186.29,118.82L185.04,119.11L184.14,119.54L183.67,120.07L183.69,120.64L183.98,120.96"/><path d="M186.43,116.92L186.44,117.02L186.56,117.16L186.80,117.27L187.12,117.36L187.48,117.40L187.86,117.39L188.20,117.34L188.47,117.25L188.65,117.12L188.71,116.99L188.64,116.84L188.45,116.72L188.18,116.62L187.83,116.55L187.45,116.53L187.09,116.56L186.78,116.64L186.55,116.74L186.43,116.88L186.43,116.92"/><path d="M186.22,108.91L186.03,109.29L186.20,109.83L186.37,109.97"/><path d="M190.07,107.28L189.51,107.55"/><path d="M190.78,129.43L190.82,128.16"/><path d="M195.40,121.90L195.62,121.79L195.94,121.72L196.30,121.69L196.68,121.71L197.02,121.77L197.30,121.87L197.49,122.00L197.56,122.14L197.50,122.28L197.32,122.41L197.05,122.50L196.71,122.55L196.28,122.55L195.97,122.51L195.65,122.43L195.41,122.32L195.29,122.18L195.28,122.04L195.40,121.90"/><path d="M212.28,145.05L212.31,143.78L211.01,143.98L209.59,144.02L208.18,143.88L206.93,143.59L205.96,143.18L199.39,139.35L199.36,140.62"/><path d="M199.39,139.35L198.79,138.86L198.61,138.33"/><path d="M199.51,137.35L199.51,137.37"/><path d="M199.73,134.64L199.76,133.37"/><path d="M205.93,144.45L205.96,143.18"/><path d="M212.31,143.78L215.54,143.03L215.51,144.30L216.55,143.96L217.25,143.50L217.52,142.97L217.56,141.70L217.28,142.23L216.59,142.69L215.54,143.03"/><path d="M213.11,138.32L212.87,138.38L213.43,138.70L213.44,138.25L213.11,138.32"/><path d="M213.43,138.70L213.81,138.93L213.82,138.47L213.44,138.25"/><path d="M225.38,138.17L216.19,140.31L214.47,139.31L214.39,139.11L214.12,138.72L213.82,138.47L224.45,135.99L224.07,135.77L224.64,135.64L224.63,136.14L224.75,136.25L225.02,136.63L225.22,137.12L225.26,137.29"/><path d="M213.81,138.93L214.47,139.31"/><path d="M215.51,144.30L214.83,144.46L214.84,144.54L215.35,145.59L216.17,146.34"/><path d="M214.83,144.46L214.31,144.58"/><path d="M216.19,140.31L216.78,140.66L217.38,141.16L217.56,141.70"/><path d="M224.45,135.99L224.63,136.14"/><path d="M224.64,135.64L228.55,137.92L228.52,139.19"/><path d="M228.55,137.92L229.52,138.33L230.77,138.62L232.18,138.76L233.60,138.72L234.90,138.52L234.87,139.79"/><path d="M234.90,138.52L236.42,138.17L236.39,139.44"/><path d="M236.42,138.17L237.56,137.78L238.26,137.25L238.43,136.66"/></g><g style="stroke:#000000;stroke-width:0.529"><path d="M144.23,101.70L141.29,102.38L140.24,102.73L139.55,103.19L139.27,103.71L139.24,104.98L139.41,105.52L140.02,106.03L146.59,109.86L147.54,110.27L148.76,110.55L150.13,110.69L154.32,110.63L155.17,110.71L155.37,110.89L156.13,111.34L157.18,111.70L158.34,111.63L159.24,111.42L159.50,111.48L161.41,112.30L167.38,115.78L170.35,117.51L171.54,118.50L171.66,118.86L171.44,119.32L169.48,120.68L169.23,121.20L169.20,122.47L169.38,123.00L169.98,123.49L175.96,126.98L176.92,127.39L178.14,127.68L179.51,127.82L183.70,127.75L186.44,128.03L188.88,128.61L190.78,129.43L199.73,134.64L200.92,135.62L201.04,135.98L200.82,136.44L198.86,137.81L198.61,138.33L198.58,139.60L198.76,140.13L199.36,140.62L205.93,144.45L206.90,144.87L208.15,145.15L209.56,145.29L210.98,145.25L212.28,145.05L214.31,144.58L214.58,145.15L215.40,145.89L216.17,146.34L217.21,146.69L218.38,146.63L221.42,145.92L222.59,145.44L223.67,144.59L224.53,143.46L225.10,142.15L225.32,140.80L225.38,138.17L225.35,137.65L225.26,137.29L228.52,139.19L229.49,139.61L230.74,139.89L232.15,140.03L233.57,139.99L234.87,139.79L236.39,139.44L237.53,139.05L238.23,138.52L238.40,137.93L238.43,136.66L238.06,136.07L235.05,133.50L221.24,125.45L220.24,125.52L219.33,125.68L218.70,125.83L217.41,126.03L215.99,126.06L214.58,125.93L213.33,125.64L212.35,125.22L186.81,110.33L186.37,109.97L186.97,109.58L187.81,109.30"/><path d="M155.32,103.91L155.84,103.79"/><path d="M163.07,102.11L164.38,101.80L163.09,101.05"/><path d="M175.07,98.73L171.24,97.12L169.96,96.74L168.43,96.55L166.85,96.56L165.40,96.77L163.88,97.12L163.19,97.35"/><path d="M184.77,121.47L184.20,121.19L183.98,120.96L184.10,120.81L185.01,120.38L186.26,120.09L187.72,119.97L189.22,120.04L190.61,120.29L191.73,120.70L192.40,121.16L191.84,121.55L190.74,121.92L189.37,122.13L187.87,122.15L186.41,121.99L185.14,121.65L184.77,121.47"/><path d="M188.32,106.26L190.07,107.28L190.04,108.55L189.42,108.85L189.26,108.90"/></g></g><g/><g/><g id="paperID" visibility="hidden" opacity="0.00" transform="scale(0.000100)"><path style="stroke:#000000;stroke-width:0.500;fill:#e6e6e6;fill-rule:evenodd" d="M-2000.00,-2000.00L2297.00,-2000.00L2297.00,2210.00L-2000.00,2210.00zM0.00,0.00L297.00,0.00L297.00,210.00L0.00,210.00z"/><path style="fill:#000000;fill-opacity:0.118" d="M3.00,210.00L297.00,210.00L297.00,3.00L300.00,3.00L300.00,213.00L3.00,213.00z"/></g><g><g><path style="stroke:#000000;stroke-width:0.353;fill:#f0f0ff" d="M5.70,129.98L188.15,129.98L188.15,136.40L5.70,136.40z"/><text xml:space="preserve" fill="#000000" stroke-width="0" x="8.17" y="134.92" font-size="4.68" opacity="1.00" font-family="MS Shell Dlg" font-weight="bold">Rfrence CRD (config)</text><text xml:space="preserve" fill="#000000" stroke-width="0" x="64.40" y="134.92" font-size="4.71" opacity="1.00" font-family="MS Shell Dlg" font-weight="bold">AS400 (config)</text><text xml:space="preserve" fill="#000000" stroke-width="0" x="101.41" y="134.92" font-size="4.65" opacity="1.00" font-family="MS Shell Dlg" font-weight="bold">NOM (config)</text><path style="stroke:#000000;stroke-width:0.353" d="M61.93,129.98L61.93,136.40"/><path style="stroke:#000000;stroke-width:0.353" d="M98.94,129.98L98.94,136.40"/></g><g id="Line4"><path style="stroke:#000000;stroke-width:0.353;fill:#ffffff" d="M5.70,136.40L188.15,136.40L188.15,142.82L5.70,142.82z"/><text xml:space="preserve" fill="#000000" stroke-width="0" x="8.17" y="141.34" font-size="4.77" opacity="1.00" font-family="MS Shell Dlg">62009</text><text xml:space="preserve" fill="#000000" stroke-width="0" x="64.40" y="141.34" font-size="4.79" opacity="1.00" font-family="MS Shell Dlg">810867</text><text xml:space="preserve" fill="#000000" stroke-width="0" x="101.41" y="141.34" font-size="4.80" opacity="1.00" font-family="MS Shell Dlg">Logo INOX CRD</text><path style="stroke:#000000;stroke-width:0.353" d="M61.93,136.40L61.93,142.82"/><path style="stroke:#000000;stroke-width:0.353" d="M98.94,136.40L98.94,142.82"/></g><g id="Line8"><path style="stroke:#000000;stroke-width:0.353;fill:#f0f0ff" d="M5.70,142.82L188.15,142.82L188.15,149.24L5.70,149.24z"/><text xml:space="preserve" fill="#000000" stroke-width="0" x="8.17" y="147.76" font-size="4.85" opacity="1.00" font-family="MS Shell Dlg">ASPI189</text><text xml:space="preserve" fill="#000000" stroke-width="0" x="64.40" y="147.76" font-size="4.79" opacity="1.00" font-family="MS Shell Dlg">810692</text><text xml:space="preserve" fill="#000000" stroke-width="0" x="101.41" y="147.76" font-size="4.79" opacity="1.00" font-family="MS Shell Dlg">Rflcteur ASPI</text><path style="stroke:#000000;stroke-width:0.353" d="M61.93,142.82L61.93,149.24"/><path style="stroke:#000000;stroke-width:0.353" d="M98.94,142.82L98.94,149.24"/></g><g id="Line7"><path style="stroke:#000000;stroke-width:0.353;fill:#ffffff" d="M5.70,149.24L188.15,149.24L188.15,155.66L5.70,155.66z"/><text xml:space="preserve" fill="#000000" stroke-width="0" x="8.17" y="154.18" font-size="4.85" opacity="1.00" font-family="MS Shell Dlg">ASPI134</text><text xml:space="preserve" fill="#000000" stroke-width="0" x="64.40" y="154.18" font-size="4.79" opacity="1.00" font-family="MS Shell Dlg">801373</text><text xml:space="preserve" fill="#000000" stroke-width="0" x="101.41" y="154.18" font-size="4.80" opacity="1.00" font-family="MS Shell Dlg">Platine support luminaire</text><path style="stroke:#000000;stroke-width:0.353" d="M61.93,149.24L61.93,155.66"/><path style="stroke:#000000;stroke-width:0.353" d="M98.94,149.24L98.94,155.66"/></g><g id="Line6"><path style="stroke:#000000;stroke-width:0.353;fill:#f0f0ff" d="M5.70,155.66L188.15,155.66L188.15,162.08L5.70,162.08z"/><text xml:space="preserve" fill="#000000" stroke-width="0" x="8.17" y="160.59" font-size="4.85" opacity="1.00" font-family="MS Shell Dlg">ASPI113</text><text xml:space="preserve" fill="#000000" stroke-width="0" x="64.40" y="160.59" font-size="4.79" opacity="1.00" font-family="MS Shell Dlg">801353</text><text xml:space="preserve" fill="#000000" stroke-width="0" x="101.41" y="160.59" font-size="4.78" opacity="1.00" font-family="MS Shell Dlg">PVC Lumire</text><path style="stroke:#000000;stroke-width:0.353" d="M61.93,155.66L61.93,162.08"/><path style="stroke:#000000;stroke-width:0.353" d="M98.94,155.66L98.94,162.08"/></g><g id="Line5"><path style="stroke:#000000;stroke-width:0.353;fill:#ffffff" d="M5.70,162.08L188.15,162.08L188.15,168.49L5.70,168.49z"/><text xml:space="preserve" fill="#000000" stroke-width="0" x="8.17" y="167.01" font-size="4.82" opacity="1.00" font-family="MS Shell Dlg">JN62904A</text><text xml:space="preserve" fill="#000000" stroke-width="0" x="64.40" y="167.01" font-size="4.79" opacity="1.00" font-family="MS Shell Dlg">804673</text><text xml:space="preserve" fill="#000000" stroke-width="0" x="101.41" y="167.01" font-size="4.83" opacity="1.00" font-family="MS Shell Dlg">Joint PVC lumire mousse EPDM noire</text><path style="stroke:#000000;stroke-width:0.353" d="M61.93,162.08L61.93,168.49"/><path style="stroke:#000000;stroke-width:0.353" d="M98.94,162.08L98.94,168.49"/></g><g id="Line1"><path style="stroke:#000000;stroke-width:0.353;fill:#f0f0ff" d="M5.70,168.49L188.15,168.49L188.15,174.91L5.70,174.91z"/><text xml:space="preserve" fill="#000000" stroke-width="0" x="8.17" y="173.43" font-size="4.85" opacity="1.00" font-family="MS Shell Dlg">ASPI113T</text><text xml:space="preserve" fill="#000000" stroke-width="0" x="64.40" y="173.43" font-size="4.79" opacity="1.00" font-family="MS Shell Dlg">801354</text><text xml:space="preserve" fill="#000000" stroke-width="0" x="101.41" y="173.43" font-size="4.81" opacity="1.00" font-family="MS Shell Dlg">Protection voyant rob aspi</text><path style="stroke:#000000;stroke-width:0.353" d="M61.93,168.49L61.93,174.91"/><path style="stroke:#000000;stroke-width:0.353" d="M98.94,168.49L98.94,174.91"/></g><g id="Line10"><path style="stroke:#000000;stroke-width:0.353;fill:#ffffff" d="M5.70,174.91L188.15,174.91L188.15,181.33L5.70,181.33z"/><text xml:space="preserve" fill="#000000" stroke-width="0" x="8.17" y="179.85" font-size="4.79" opacity="1.00" font-family="MS Shell Dlg">LR6-02WJNW</text><text xml:space="preserve" fill="#000000" stroke-width="0" x="64.40" y="179.85" font-size="4.79" opacity="1.00" font-family="MS Shell Dlg">804939</text><text xml:space="preserve" fill="#000000" stroke-width="0" x="101.41" y="179.85" font-size="4.81" opacity="1.00" font-family="MS Shell Dlg">Embase colonne lumineuse</text><path style="stroke:#000000;stroke-width:0.353" d="M61.93,174.91L61.93,181.33"/><path style="stroke:#000000;stroke-width:0.353" d="M98.94,174.91L98.94,181.33"/></g><g id="Line3"><path style="stroke:#000000;stroke-width:0.353;fill:#f0f0ff" d="M5.70,181.33L188.15,181.33L188.15,187.75L5.70,187.75z"/><text xml:space="preserve" fill="#000000" stroke-width="0" x="8.17" y="186.27" font-size="4.85" opacity="1.00" font-family="MS Shell Dlg">AMLEDBLANCHE</text><text xml:space="preserve" fill="#000000" stroke-width="0" x="64.40" y="186.27" font-size="4.79" opacity="1.00" font-family="MS Shell Dlg">811394</text><text xml:space="preserve" fill="#000000" stroke-width="0" x="101.41" y="186.27" font-size="4.82" opacity="1.00" font-family="MS Shell Dlg">Led blanche robot 12-24V</text><path style="stroke:#000000;stroke-width:0.353" d="M61.93,181.33L61.93,187.75"/><path style="stroke:#000000;stroke-width:0.353" d="M98.94,181.33L98.94,187.75"/></g><g id="Line2"><path style="stroke:#000000;stroke-width:0.353;fill:#ffffff" d="M5.70,187.75L188.15,187.75L188.15,194.17L5.70,194.17z"/><text xml:space="preserve" fill="#000000" stroke-width="0" x="8.17" y="192.69" font-size="4.80" opacity="1.00" font-family="MS Shell Dlg">535-8382</text><text xml:space="preserve" fill="#000000" stroke-width="0" x="64.40" y="192.69" font-size="4.79" opacity="1.00" font-family="MS Shell Dlg">800729</text><text xml:space="preserve" fill="#000000" stroke-width="0" x="101.41" y="192.69" font-size="4.82" opacity="1.00" font-family="MS Shell Dlg">Buzzer continu 24VDC (cde par 25)</text><path style="stroke:#000000;stroke-width:0.353" d="M61.93,187.75L61.93,194.17"/><path style="stroke:#000000;stroke-width:0.353" d="M98.94,187.75L98.94,194.17"/></g><g id="Line11"><path style="stroke:#000000;stroke-width:0.353;fill:#f0f0ff" d="M5.70,194.17L188.15,194.17L188.15,200.59L5.70,200.59z"/><text xml:space="preserve" fill="#000000" stroke-width="0" x="8.17" y="199.11" font-size="4.83" opacity="1.00" font-family="MS Shell Dlg">WU03224</text><text xml:space="preserve" fill="#000000" stroke-width="0" x="64.40" y="199.11" font-size="4.79" opacity="1.00" font-family="MS Shell Dlg">807237</text><text xml:space="preserve" fill="#000000" stroke-width="0" x="101.41" y="199.11" font-size="4.79" opacity="1.00" font-family="MS Shell Dlg">Ecrou M4 INOX</text><path style="stroke:#000000;stroke-width:0.353" d="M61.93,194.17L61.93,200.59"/><path style="stroke:#000000;stroke-width:0.353" d="M98.94,194.17L98.94,200.59"/></g><g id="Line9"><path style="stroke:#000000;stroke-width:0.353;fill:#ffffff" d="M5.70,200.59L188.15,200.59L188.15,207.01L5.70,207.01z"/><text xml:space="preserve" fill="#000000" stroke-width="0" x="8.17" y="205.53" font-size="4.76" opacity="1.00" font-family="MS Shell Dlg">LR6-E-MZ</text><text xml:space="preserve" fill="#000000" stroke-width="0" x="64.40" y="205.53" font-size="4.79" opacity="1.00" font-family="MS Shell Dlg">804940</text><text xml:space="preserve" fill="#000000" stroke-width="0" x="101.41" y="205.53" font-size="4.81" opacity="1.00" font-family="MS Shell Dlg">Module lumineu 7 couleurs</text><path style="stroke:#000000;stroke-width:0.353" d="M61.93,200.59L61.93,207.01"/><path style="stroke:#000000;stroke-width:0.353" d="M98.94,200.59L98.94,207.01"/></g></g><g id="hotspot.0" ident="" onmouseover="ShowHotSpot(evt,&apos;0&apos;)" onmouseout="HideHotSpot(evt,&apos;0&apos;)" onmousemove="ShowToolTip(evt,&apos;0&apos;,&quot;62 905  PVC transparent lumiere-1&quot;)" opacity="0"><path style="fill:#00ff00;fill-rule:evenodd" d="M5.70,168.49L5.70,174.91L188.15,174.91L188.15,168.49zM86.88,87.02L89.83,88.87L90.64,90.57L90.01,120.32L89.82,122.00L89.12,122.56L87.70,122.56L30.04,88.89L29.40,87.86L29.18,87.24L29.19,80.81L29.81,56.36L30.18,55.26L31.52,54.84zM35.05,62.36L35.06,63.06L34.83,63.47L34.65,63.42L34.20,62.57L34.15,61.08L34.41,61.05zM34.43,85.33L34.41,86.69L34.01,86.62L33.57,85.78L33.59,84.34L33.81,84.28zM86.05,91.40L86.27,92.95L86.04,93.35L85.85,93.31L85.40,92.46L85.42,90.76zM85.63,115.22L85.55,116.51L85.22,116.50L84.78,115.66L84.73,114.16L84.99,114.14z"/></g><g id="hotspot.1" ident="" onmouseover="ShowHotSpot(evt,&apos;1&apos;)" onmouseout="HideHotSpot(evt,&apos;1&apos;)" onmousemove="ShowToolTip(evt,&apos;1&apos;,&quot;Head Cover-1&quot;)" opacity="0"><path style="fill:#00ff00;fill-rule:evenodd" d="M5.70,174.91L5.70,181.33L188.15,181.33L188.15,174.91zM196.40,2.57L199.54,3.41L202.46,4.87L204.56,7.16L204.56,14.57L203.93,16.03L202.16,17.39L198.64,18.69L194.66,19.30L188.87,19.30L185.31,18.89L181.55,17.84L178.86,16.57L177.39,14.90L177.37,7.24L178.12,5.69L180.51,3.90L183.57,2.78L187.34,2.16L193.05,2.16zM192.84,58.38L197.02,59.22L200.16,60.47L201.85,61.92L202.26,63.62L202.24,65.30L202.67,66.12L203.08,67.37L203.08,74.34L202.46,99.42L202.26,101.94L201.40,103.37L199.44,104.55L197.80,105.21L197.59,108.14L195.97,108.14L195.77,105.81L191.52,106.25L188.04,106.25L185.32,106.04L181.91,105.60L181.77,108.20L180.09,108.14L180.09,104.99L178.42,104.37L176.35,103.10L175.06,101.46L175.91,67.23L176.34,65.57L176.75,65.14L176.96,64.52L177.31,61.52L179.19,60.05L181.69,59.00L185.04,58.39L190.33,58.18z"/></g><g id="hotspot.2" ident="" onmouseover="ShowHotSpot(evt,&apos;2&apos;)" onmouseout="HideHotSpot(evt,&apos;2&apos;)" onmousemove="ShowToolTip(evt,&apos;2&apos;,&quot;Ecrou-4&quot;)" opacity="0"><path style="fill:#00ff00;fill-rule:evenodd" d="M5.70,194.17L5.70,200.59L188.15,200.59L188.15,194.17zM189.49,107.29L189.45,108.56L188.82,109.19L186.98,109.18L186.09,108.82L186.14,107.55L186.50,107.08L187.13,106.87L188.25,106.87zM198.49,112.69L198.29,113.85L197.60,114.41L195.76,114.41L194.94,113.98L194.93,112.58L195.69,112.09L197.45,112.09zM182.62,112.71L182.61,113.64L182.12,114.40L179.88,114.41L179.19,114.05L179.26,112.58L180.23,112.10L181.35,112.10z"/></g><g id="hotspot.3" ident="" onmouseover="ShowHotSpot(evt,&apos;3&apos;)" onmouseout="HideHotSpot(evt,&apos;3&apos;)" onmousemove="ShowToolTip(evt,&apos;3&apos;,&quot;Buzzer 535-8382-1&quot;)" opacity="0"><path style="fill:#00ff00;fill-rule:evenodd" d="M5.70,187.75L5.70,194.17L188.15,194.17L188.15,187.75zM135.59,15.31L136.64,16.16L137.48,16.17L138.11,16.56L138.22,17.50L139.78,17.39L139.99,17.60L140.11,18.76L141.87,18.65L142.08,18.86L142.07,21.05L141.89,21.29L140.33,21.79L141.01,24.53L141.22,28.56L140.80,30.86L140.11,32.47L138.84,33.92L131.81,35.67L127.57,36.24L125.95,36.24L121.15,33.30L118.77,24.31L121.51,18.47L122.76,18.05L124.92,17.49L126.31,16.79L133.42,15.12z"/></g><g id="hotspot.4" ident="" onmouseover="ShowHotSpot(evt,&apos;4&apos;)" onmouseout="HideHotSpot(evt,&apos;4&apos;)" onmousemove="ShowToolTip(evt,&apos;4&apos;,&quot;Bande LED 12W-2&quot;)" opacity="0"><path style="fill:#00ff00;fill-rule:evenodd" d="M5.70,181.33L5.70,187.75L188.15,187.75L188.15,181.33zM93.35,37.90L94.22,38.71L94.82,39.99L95.03,42.08L95.03,46.33L94.63,49.69L94.32,50.01L93.08,50.45L91.46,50.45L72.88,39.56L72.24,38.54L72.03,37.70L71.81,32.55L72.23,28.13L72.86,27.50L73.85,27.24L74.98,27.23z"/></g><g id="hotspot.5" ident="" onmouseover="ShowHotSpot(evt,&apos;5&apos;)" onmouseout="HideHotSpot(evt,&apos;5&apos;)" onmousemove="ShowToolTip(evt,&apos;5&apos;,&quot;62 009 Logo CRD-1&quot;)" opacity="0"><path style="fill:#00ff00;fill-rule:evenodd" d="M5.70,136.40L5.70,142.82L188.15,142.82L188.15,136.40zM131.64,85.94L132.44,87.64L131.81,117.39L131.62,119.08L131.22,119.51L130.29,119.84L129.30,119.84L71.61,86.19L70.77,85.15L70.57,84.31L70.57,79.56L71.20,54.48L71.40,52.79L71.75,52.31L73.72,52.10zM76.64,59.85L76.43,60.54L75.99,60.07L75.72,58.35L76.01,58.18zM84.79,65.90L87.08,68.21L87.92,69.88L88.55,72.60L88.75,74.98L87.90,74.70L87.65,74.54L86.87,71.14L86.07,69.64L85.43,69.03L84.29,69.04L83.24,69.45L82.42,70.72L82.07,72.69L81.46,72.59L80.54,72.04L80.74,69.04L82.09,65.58L82.44,65.07L82.89,65.05zM102.34,76.36L103.83,78.01L104.64,79.49L105.26,81.38L105.49,83.12L104.21,82.43L103.78,82.03L103.61,80.95L102.78,79.68L101.51,78.66L99.65,77.62L98.50,77.81L98.40,78.93L96.84,78.10L96.91,74.75L97.05,73.41L97.31,73.39zM81.88,76.34L82.07,78.87L82.69,81.39L83.54,83.04L84.16,83.49L85.78,83.27L86.67,82.49L87.30,81.15L88.94,82.41L88.76,83.54L87.92,85.83L87.23,87.23L86.24,87.24L84.38,86.37L82.48,84.31L82.06,83.68L81.01,80.34L80.53,75.52zM98.37,81.17L98.58,83.46L100.87,84.73L102.71,84.73L103.61,84.29L105.47,85.35L105.28,87.51L104.77,88.46L103.81,89.17L103.61,90.00L102.35,89.31L101.73,88.05L99.42,86.79L97.96,86.80L96.63,86.04L96.82,80.33zM76.01,82.83L75.99,83.98L75.76,83.98L75.37,83.26L75.37,81.37zM116.77,84.72L118.46,85.95L119.90,87.65L121.36,90.57L122.21,93.07L122.64,96.48L121.09,95.65L120.31,91.62L119.30,89.50L118.02,88.27L116.55,87.41L115.23,87.64L115.11,92.10L113.56,91.27L113.63,86.04L113.84,83.03zM127.43,88.26L127.83,89.93L127.64,90.42L127.45,90.38L127.00,89.12L126.94,88.04L127.22,88.01zM98.16,89.11L98.16,91.89L97.97,93.98L96.49,93.29L96.49,91.47L96.70,88.25zM104.22,92.67L105.09,98.15L103.81,97.47L102.97,93.29L102.90,92.01L103.16,92.00zM114.90,95.57L115.09,101.23L116.96,102.28L118.17,102.28L119.73,101.75L120.95,99.12L121.78,99.56L122.63,100.17L122.42,102.35L121.16,105.06L119.84,106.27L118.22,105.83L113.42,103.11L113.42,94.73zM127.22,112.72L127.21,113.65L126.82,113.58L126.36,112.30L126.35,111.74L126.58,111.26z"/></g><g id="hotspot.6" ident="" onmouseover="ShowHotSpot(evt,&apos;6&apos;)" onmouseout="HideHotSpot(evt,&apos;6&apos;)" onmousemove="ShowToolTip(evt,&apos;6&apos;,&quot;62 904 joint PVC lumiere-1&quot;)" opacity="0"><path style="fill:#00ff00;fill-rule:evenodd" d="M5.70,162.08L5.70,168.49L188.15,168.49L188.15,162.08zM160.86,80.12L162.77,81.35L163.38,82.62L163.37,91.06L162.95,107.99L162.76,110.09L162.26,110.63L161.22,110.84L159.83,110.83L132.37,94.82L132.44,92.31L132.65,90.76L155.43,103.97L155.88,103.86L156.27,102.97L156.68,89.38L156.68,84.51L156.06,82.63L155.03,81.15L153.96,80.33L111.55,55.66L110.90,56.77L110.70,59.29L110.28,73.31L109.87,73.26L103.95,69.73L104.16,54.62L104.42,49.66L105.04,49.03L106.04,48.77L107.16,48.76zM117.19,84.92L119.10,86.57L119.31,87.07L115.74,85.11L113.78,83.95L113.84,83.02zM127.43,88.26L127.83,89.93L127.64,90.42L127.45,90.38L127.00,89.12L126.94,88.04L127.22,88.01zM108.83,53.35L108.84,54.27L108.21,53.98L107.97,53.59L107.99,52.30zM159.62,82.63L160.06,84.15L159.41,83.87L158.98,83.06L158.92,82.19L159.18,82.17zM158.81,105.58L159.42,106.89L159.41,107.37L159.01,107.30L158.58,106.86L158.35,106.26L158.29,105.39L158.56,105.37z"/></g><g id="hotspot.7" ident="" onmouseover="ShowHotSpot(evt,&apos;7&apos;)" onmouseout="HideHotSpot(evt,&apos;7&apos;)" onmousemove="ShowToolTip(evt,&apos;7&apos;,&quot;62 903 PVC lumiere-1&quot;)" opacity="0"><path style="fill:#00ff00;fill-rule:evenodd" d="M5.70,155.66L5.70,162.08L188.15,162.08L188.15,155.66zM177.59,73.64L180.54,75.50L181.35,77.19L180.73,104.03L180.43,104.56L179.62,105.01L178.62,105.01L163.31,96.07L163.38,82.62L162.77,81.35L160.86,80.12L122.62,57.76L122.76,46.68L123.02,43.60L123.38,43.12L124.01,42.91L124.93,42.91zM153.96,80.33L155.03,81.15L156.06,82.63L156.68,84.51L156.68,89.38L156.48,91.91L156.06,91.86L123.47,72.79L122.61,71.77L122.40,71.15L122.41,63.26L122.55,62.13L122.81,62.11zM159.62,82.63L160.06,84.15L159.41,83.87L158.98,83.06L158.92,82.19L159.18,82.17zM126.81,46.46L127.43,47.50L127.42,48.86L126.58,48.56L126.18,48.34L125.74,47.53L125.75,45.82zM125.96,69.67L126.81,70.70L126.82,72.24L125.55,71.54L125.11,70.73L125.06,69.23L125.32,69.22zM178.01,76.35L178.64,77.61L178.65,78.32L178.43,78.71L177.18,78.02L176.74,77.00L176.73,75.97L176.97,75.72zM177.62,99.95L178.01,100.81L178.00,101.95L177.16,101.65L176.55,101.22L176.32,100.83L176.26,99.12L176.53,99.10z"/></g><g id="hotspot.8" ident="" onmouseover="ShowHotSpot(evt,&apos;8&apos;)" onmouseout="HideHotSpot(evt,&apos;8&apos;)" onmousemove="ShowToolTip(evt,&apos;8&apos;,&quot;62 727 Tle support lumire-1&quot;)" opacity="0"><path style="fill:#00ff00;fill-rule:evenodd" d="M5.70,149.24L5.70,155.66L188.15,155.66L188.15,149.24zM170.28,96.83L175.07,98.72L175.06,101.46L176.35,103.10L178.42,104.37L180.09,104.99L180.09,108.14L181.77,108.20L181.91,105.60L185.32,106.04L188.04,106.24L188.66,106.46L189.94,107.27L189.91,108.62L189.49,108.84L189.49,107.29L188.25,106.87L187.13,106.87L186.50,107.08L186.14,107.55L186.09,108.82L187.41,109.39L186.56,109.88L186.56,110.20L212.49,125.26L214.36,125.90L218.28,125.89L221.27,125.45L234.85,133.42L237.38,135.49L238.42,136.75L238.42,138.10L238.02,138.74L236.73,139.33L234.16,139.90L230.67,139.90L228.57,139.28L225.45,137.37L225.24,141.43L224.41,143.73L222.46,145.55L218.70,146.59L216.87,146.60L215.43,145.94L214.35,144.70L211.80,145.12L207.89,145.13L206.01,144.49L198.92,140.30L198.68,139.91L198.67,138.06L201.02,136.21L201.03,135.92L199.98,134.85L190.33,129.24L188.04,128.40L183.86,127.78L179.05,127.77L176.74,127.37L171.13,124.20L169.44,123.17L169.43,120.73L171.55,119.29L171.54,118.57L170.07,117.32L160.87,112.10L159.40,111.45L157.45,111.69L156.47,111.48L155.23,110.84L154.39,110.64L149.58,110.64L147.27,110.23L139.98,106.02L139.32,105.22L139.32,103.58L139.68,103.11L140.94,102.49L143.67,101.85L144.36,101.84L159.83,110.83L161.22,110.84L162.26,110.63L162.76,110.09L163.15,102.12L164.02,101.91L164.05,101.66L163.10,101.09L163.28,97.44L164.14,97.05L166.44,96.63L169.02,96.63zM158.81,105.58L159.42,106.89L159.41,107.37L159.01,107.30L158.58,106.86L158.35,106.26L158.29,105.39L158.56,105.37zM182.62,112.71L182.61,113.64L182.12,114.40L179.88,114.41L179.19,114.05L179.26,112.58L180.23,112.10L181.35,112.10zM190.95,120.47L192.26,121.09L192.23,121.35L190.70,121.94L188.60,122.13L187.62,122.13L185.31,121.73L184.26,121.28L184.27,120.75L185.67,120.25L186.72,120.04L189.08,120.04z"/></g><g id="hotspot.9" ident="" onmouseover="ShowHotSpot(evt,&apos;9&apos;)" onmouseout="HideHotSpot(evt,&apos;9&apos;)" onmousemove="ShowToolTip(evt,&apos;9&apos;,&quot;62 700 Rflcteur-1&quot;)" opacity="0"><path style="fill:#00ff00;fill-rule:evenodd" d="M5.70,142.82L5.70,149.24L188.15,149.24L188.15,142.82zM246.76,36.44L249.26,37.92L257.44,50.22L257.43,57.82L256.83,81.05L246.56,85.21L246.15,88.98L245.95,89.40L245.24,89.76L244.25,89.53L240.85,87.50L241.12,65.70L218.76,59.01L217.65,59.01L201.34,60.90L200.59,60.89L200.16,60.47L197.02,59.22L192.84,58.38L191.38,58.18L191.16,57.56L191.09,55.87L192.42,55.88L192.62,56.51L193.06,57.14L193.61,57.15L193.82,55.88L194.22,55.65L198.71,54.91L201.86,53.46L203.31,52.20L203.50,51.13L203.92,38.80L203.93,33.50L203.51,32.87L203.07,31.64L203.01,30.16L219.60,28.28zM243.97,86.20L244.89,85.96L244.91,86.68L244.66,87.10L244.28,87.04L244.04,86.80z"/></g><g id="hotspot.10" ident="" onmouseover="ShowHotSpot(evt,&apos;10&apos;)" onmouseout="HideHotSpot(evt,&apos;10&apos;)" onmousemove="ShowToolTip(evt,&apos;10&apos;,&quot;LED Unit-1&quot;)" opacity="0"><path style="fill:#00ff00;fill-rule:evenodd" d="M5.70,200.59L5.70,207.01L188.15,207.01L188.15,200.59zM194.31,24.94L198.91,25.98L200.58,26.82L201.85,27.64L202.89,28.90L203.07,31.64L203.51,32.87L203.93,33.50L203.92,38.80L203.50,51.13L203.31,52.20L201.86,53.46L198.85,54.84L194.24,55.67L187.62,55.67L185.31,55.46L181.55,54.63L178.23,53.14L176.75,51.90L176.33,50.45L176.47,39.16L176.73,32.94L177.81,31.08L177.99,28.76L178.64,27.53L180.65,26.20L184.00,25.15L186.92,24.73L192.42,24.73z"/></g><g id="ToolTip" visibility="hidden" opacity="0" transform="translate(0,0)"><rect id="ToolTipShadow" opacity="0.20" fill="black" stroke="none" x="0" y="0" width="30" height="8"/><rect id="ToolTipBG" fill="#ffffe1" stroke="black" x="0" y="0" width="30" height="8"/><text xml:space="preserve" id="ToolTipText" fill="black" x="0" y="0" width="30" height="8">tooltip</text></g></g></svg>